<svg width="411" height="364" viewBox="0 0 411 364" fill="none" xmlns="http://www.w3.org/2000/svg">
<path d="M311.324 311.387C248.186 342.364 145.823 342.364 82.6849 311.387C19.5471 280.411 19.5471 230.194 82.6849 199.217C145.823 168.241 248.186 168.248 311.324 199.217C374.462 230.186 374.462 280.411 311.324 311.387Z" fill="#F5F5F5"/>
<path d="M166.431 269.855L219.63 296.864C220.183 297.113 220.794 297.243 221.414 297.243C222.034 297.243 222.645 297.113 223.198 296.864L333.157 240.633C333.372 240.569 333.558 240.446 333.69 240.283C333.822 240.12 333.893 239.924 333.893 239.723C333.893 239.522 333.822 239.327 333.69 239.163C333.558 239 333.372 238.878 333.157 238.813L276.48 209.97C275.931 209.724 275.322 209.599 274.707 209.607C274.091 209.615 273.487 209.754 272.945 210.013L166.398 267.999C166.185 268.072 166.003 268.201 165.875 268.369C165.748 268.537 165.681 268.735 165.685 268.937C165.689 269.139 165.762 269.335 165.895 269.5C166.028 269.664 166.215 269.788 166.431 269.855Z" fill="#E0E0E0"/>
<path d="M112.787 283.192L56.2413 254.29C56.0276 254.224 55.8424 254.1 55.7114 253.937C55.5804 253.773 55.51 253.577 55.51 253.377C55.51 253.176 55.5804 252.98 55.7114 252.817C55.8424 252.653 56.0276 252.53 56.2413 252.463L112.614 223.452C113.166 223.205 113.775 223.076 114.394 223.076C115.012 223.076 115.622 223.205 116.173 223.452L172.891 252.47C173.106 252.535 173.293 252.657 173.425 252.821C173.557 252.984 173.628 253.18 173.628 253.38C173.628 253.581 173.557 253.777 173.425 253.94C173.293 254.103 173.106 254.226 172.891 254.29L116.346 283.192C115.794 283.44 115.185 283.569 114.566 283.569C113.948 283.569 113.338 283.44 112.787 283.192Z" fill="#E0E0E0"/>
<path d="M262.777 307.762C278.798 307.762 291.786 300.914 291.786 292.467C291.786 284.019 278.798 277.171 262.777 277.171C246.756 277.171 233.769 284.019 233.769 292.467C233.769 300.914 246.756 307.762 262.777 307.762Z" fill="#E0E0E0"/>
<path d="M303.861 290.181C319.727 290.181 332.59 283.398 332.59 275.031C332.59 266.664 319.727 259.881 303.861 259.881C287.994 259.881 275.132 266.664 275.132 275.031C275.132 283.398 287.994 290.181 303.861 290.181Z" fill="#E0E0E0"/>
<path d="M60.1704 234.35C60.0882 229.982 56.3317 220.933 51.0791 215.321C45.8265 209.708 37.6641 205.667 31.9594 207.48C26.6493 209.184 27.348 215.379 33.9157 219.397C40.4835 223.416 50.3557 228.432 53.3232 235.501L59.4799 244.135L60.1704 234.35Z" fill="#FCB016"/>
<path opacity="0.1" d="M60.1704 234.35C60.0882 229.982 56.3317 220.933 51.0791 215.321C45.8265 209.708 37.6641 205.667 31.9594 207.48C26.6493 209.184 27.348 215.379 33.9157 219.397C40.4835 223.416 50.3557 228.432 53.3232 235.501L59.4799 244.135L60.1704 234.35Z" fill="black"/>
<path d="M60.6554 240.342C60.5778 240.337 60.5039 240.311 60.4447 240.266C60.3855 240.222 60.3441 240.161 60.3266 240.094C56.718 225.17 42.8015 213.217 34.5651 210.654C34.4747 210.626 34.4005 210.567 34.3589 210.491C34.3173 210.414 34.3116 210.327 34.3431 210.246C34.3579 210.206 34.3816 210.169 34.4131 210.137C34.4445 210.105 34.4828 210.079 34.5259 210.061C34.5689 210.043 34.6157 210.032 34.6634 210.03C34.7111 210.028 34.7587 210.035 34.8035 210.05C43.1961 212.656 57.3674 224.814 61.0335 239.956C61.0529 240.039 61.0345 240.126 60.9821 240.197C60.9297 240.267 60.8477 240.317 60.754 240.335L60.6554 240.342Z" fill="white"/>
<path d="M58.362 249.966C57.54 247.513 54.0383 243.494 48.498 240.218C42.3412 236.578 34.6062 235.006 32.7731 232.145C30.5784 228.701 33.8171 225.367 40.0807 225.957C46.3443 226.546 57.4742 233.921 59.4552 245.263L58.362 249.966Z" fill="#FCB016"/>
<path d="M59.4799 247.36C59.4104 247.355 59.3439 247.333 59.2885 247.295C59.2331 247.258 59.1911 247.207 59.1675 247.149C53.7341 234.416 42.596 230.048 37.4667 229.568C37.4191 229.563 37.373 229.55 37.331 229.53C37.289 229.509 37.2521 229.482 37.2222 229.449C37.1924 229.415 37.1703 229.377 37.1573 229.336C37.1442 229.296 37.1404 229.253 37.1461 229.211C37.1512 229.169 37.1657 229.128 37.1889 229.091C37.2121 229.055 37.2434 229.022 37.281 228.997C37.3186 228.971 37.3617 228.952 37.4078 228.941C37.4538 228.93 37.5018 228.928 37.5489 228.934C43.2207 229.495 54.2931 233.914 59.8416 246.923C59.86 246.962 59.8693 247.004 59.8689 247.046C59.8685 247.089 59.8583 247.131 59.8391 247.169C59.8199 247.208 59.792 247.243 59.7571 247.272C59.7222 247.301 59.681 247.324 59.6361 247.338C59.5857 247.353 59.533 247.36 59.4799 247.36Z" fill="white"/>
<path d="M327.978 219.856C327.978 219.856 327.403 212.314 330.362 205.9C333.321 199.487 338.294 194.98 343.514 193.75C348.733 192.52 353.953 196.152 348.873 200.054C343.793 203.956 334.307 208.638 331.956 220.533L327.978 219.856Z" fill="#FCB016"/>
<path opacity="0.15" d="M327.978 219.856C327.978 219.856 327.403 212.314 330.362 205.9C333.321 199.487 338.294 194.98 343.514 193.75C348.733 192.52 353.953 196.152 348.873 200.054C343.793 203.956 334.307 208.638 331.956 220.533L327.978 219.856Z" fill="black"/>
<path d="M329.17 217.672H329.112C329.038 217.658 328.973 217.619 328.93 217.564C328.887 217.508 328.87 217.44 328.882 217.374C331.965 204.211 341.598 197.361 346.267 195.577C346.337 195.55 346.416 195.549 346.487 195.574C346.558 195.598 346.615 195.647 346.645 195.708C346.676 195.77 346.677 195.84 346.65 195.903C346.622 195.965 346.567 196.016 346.497 196.043C341.927 197.79 332.523 204.517 329.449 217.475C329.434 217.531 329.399 217.581 329.348 217.617C329.297 217.652 329.235 217.672 329.17 217.672Z" fill="white"/>
<path d="M354.685 213.457C354.381 214.563 353.23 215.299 352.145 215.91C351.06 216.522 349.884 217.177 349.449 218.247C348.577 220.431 351.24 222.812 350.271 224.937C350.029 225.369 349.691 225.753 349.277 226.066C348.863 226.379 348.382 226.614 347.862 226.757C347.007 227.011 346.137 227.225 345.256 227.398C344.832 227.461 344.404 227.5 343.974 227.515C342.698 227.474 341.443 227.804 340.398 228.454C338.82 229.611 338.689 231.657 337.932 233.346C337.458 234.344 336.745 235.24 335.842 235.971C334.94 236.703 333.869 237.253 332.704 237.583C331.932 237.801 330.493 238.165 329.614 237.903L329.425 237.838C329.293 237.75 329.129 237.626 329.046 237.561V237.525C328.529 236.556 328.816 235.421 328.619 234.372C328.624 234.309 328.624 234.246 328.619 234.183C328.315 232.975 328.027 231.773 327.74 230.543C327.213 228.323 326.728 226.088 326.276 223.853C325.997 222.397 325.454 220.839 325.882 219.361C326.334 217.73 328.241 217.388 328.652 215.794C328.825 215.16 328.849 214.505 329.005 213.865C329.259 212.923 329.799 212.062 330.567 211.374C331.335 210.685 332.302 210.197 333.362 209.962C336.65 209.271 340.152 211.178 343.431 210.421C344.253 210.217 345.075 209.853 345.897 209.577C348.503 208.688 351.767 208.849 353.698 210.64C354.111 211.002 354.417 211.448 354.589 211.939C354.761 212.43 354.794 212.952 354.685 213.457Z" fill="#FCB016"/>
<g opacity="0.07">
<path d="M354.685 213.457C354.381 214.563 353.23 215.299 352.145 215.91C351.06 216.522 349.884 217.177 349.449 218.247C348.577 220.431 351.24 222.812 350.271 224.937C350.029 225.369 349.691 225.753 349.277 226.066C348.863 226.379 348.382 226.614 347.862 226.757C347.02 227.047 346.147 227.262 345.256 227.398C344.832 227.461 344.404 227.5 343.974 227.515C342.698 227.474 341.443 227.804 340.398 228.454C338.82 229.611 338.689 231.657 337.932 233.346C337.458 234.344 336.745 235.24 335.842 235.971C334.94 236.703 333.869 237.253 332.704 237.583C331.932 237.801 330.493 238.165 329.614 237.903L329.425 237.838C329.373 237.818 329.323 237.794 329.277 237.765C329.188 237.708 329.11 237.639 329.046 237.561V237.525C328.43 236.76 328.759 235.29 328.619 234.372C328.624 234.309 328.624 234.246 328.619 234.183C328.315 232.975 328.027 231.773 327.74 230.543C327.213 228.323 326.728 226.088 326.276 223.853C325.997 222.397 325.454 220.839 325.882 219.361C326.334 217.73 328.241 217.388 328.652 215.794C328.825 215.16 328.849 214.505 329.005 213.865C329.259 212.923 329.799 212.062 330.567 211.374C331.335 210.685 332.302 210.197 333.362 209.962C336.65 209.271 340.152 211.178 343.431 210.421C344.253 210.217 345.075 209.853 345.897 209.577C348.503 208.688 351.767 208.849 353.698 210.64C354.111 211.002 354.417 211.448 354.589 211.939C354.761 212.43 354.794 212.952 354.685 213.457Z" fill="black"/>
</g>
<path d="M327.756 232.902C327.68 232.894 327.611 232.862 327.562 232.81C327.513 232.759 327.488 232.692 327.493 232.625C328.931 216.573 346.678 211.411 350.994 210.989C351.07 210.983 351.146 211.003 351.205 211.045C351.265 211.087 351.304 211.148 351.315 211.215C351.319 211.248 351.316 211.282 351.306 211.315C351.295 211.347 351.278 211.377 351.254 211.404C351.23 211.43 351.201 211.452 351.168 211.468C351.134 211.485 351.098 211.495 351.06 211.499C346.835 211.906 329.474 216.966 328.044 232.669C328.038 232.733 328.005 232.792 327.951 232.835C327.898 232.878 327.828 232.902 327.756 232.902Z" fill="white"/>
<path d="M346.383 221.865C346.324 221.865 346.267 221.85 346.218 221.822C344.27 220.804 342.092 220.179 339.841 219.992C337.589 219.804 335.318 220.059 333.189 220.737C333.153 220.75 333.114 220.757 333.075 220.756C333.036 220.756 332.998 220.748 332.962 220.734C332.926 220.719 332.894 220.699 332.868 220.673C332.841 220.648 332.821 220.618 332.808 220.585C332.795 220.552 332.79 220.518 332.793 220.483C332.796 220.449 332.806 220.415 332.824 220.384C332.842 220.353 332.867 220.326 332.898 220.304C332.928 220.282 332.963 220.266 333 220.256C335.214 219.55 337.576 219.286 339.918 219.484C342.26 219.682 344.524 220.336 346.547 221.399C346.579 221.418 346.606 221.443 346.627 221.471C346.647 221.5 346.661 221.532 346.667 221.565C346.673 221.599 346.672 221.633 346.662 221.666C346.653 221.698 346.636 221.729 346.613 221.756C346.588 221.79 346.554 221.819 346.514 221.838C346.474 221.857 346.428 221.866 346.383 221.865Z" fill="white"/>
<path d="M176.179 142.164C176.861 141.423 177.192 140.476 177.102 139.524C177.012 138.571 176.508 137.687 175.696 137.057C174.884 136.426 173.828 136.1 172.75 136.145C171.672 136.191 170.656 136.605 169.916 137.301C169.916 136.93 169.981 136.573 169.981 136.165C169.98 134.204 169.399 132.278 168.296 130.578C167.193 128.878 165.606 127.463 163.694 126.475C161.782 125.487 159.611 124.96 157.397 124.946C155.183 124.932 153.003 125.431 151.075 126.395C151.373 125.779 151.527 125.115 151.528 124.444C151.529 123.577 151.27 122.725 150.777 121.975C150.285 121.226 149.577 120.605 148.725 120.177C147.873 119.749 146.908 119.529 145.929 119.54C144.95 119.55 143.991 119.791 143.151 120.236C143.246 119.663 143.296 119.084 143.299 118.504C143.315 115.645 142.24 112.865 140.251 110.614C138.261 108.363 135.472 106.772 132.335 106.098C129.198 105.425 125.896 105.708 122.963 106.902C120.03 108.097 117.638 110.132 116.173 112.68C115.791 111.883 115.154 111.203 114.341 110.723C113.528 110.242 112.574 109.982 111.597 109.974C110.62 109.966 109.661 110.211 108.839 110.679C108.016 111.147 107.366 111.817 106.967 112.607C105.677 110.767 103.745 109.35 101.464 108.569C99.1832 107.788 96.6772 107.686 94.3252 108.279C91.9733 108.873 89.9035 110.128 88.4291 111.856C86.9548 113.584 86.1561 115.69 86.1539 117.856C86.1586 118.356 86.2053 118.855 86.2937 119.348C85.6827 118.906 84.9425 118.626 84.159 118.541C83.3755 118.457 82.5811 118.571 81.868 118.871C81.155 119.171 80.5528 119.643 80.1313 120.234C79.7099 120.825 79.4866 121.51 79.4875 122.209C79.4875 122.209 79.4875 122.209 79.4875 122.253C77.9713 121.468 76.246 121.056 74.4897 121.059C72.0734 121.062 69.7394 121.837 67.9177 123.243C66.0961 124.649 64.9094 126.591 64.5764 128.71C63.4535 128.335 62.2321 128.255 61.059 128.48C59.886 128.704 58.8111 129.224 57.9638 129.977C57.1164 130.73 56.5325 131.683 56.2824 132.723C56.0323 133.763 56.1265 134.844 56.5537 135.838C53.4024 136.949 50.7869 138.999 49.157 141.633C47.5271 144.268 46.9847 147.323 47.623 150.274C48.2612 153.224 50.0404 155.886 52.6544 157.8C55.2684 159.715 58.5539 160.763 61.946 160.764L114.349 192.032L170.401 160.073C172.774 160.068 175.081 159.379 176.974 158.111C178.866 156.842 180.241 155.063 180.891 153.041C181.54 151.02 181.43 148.866 180.575 146.905C179.721 144.944 178.169 143.282 176.155 142.171L176.179 142.164ZM168.831 140.81C168.843 140.785 168.856 140.76 168.872 140.737C168.876 140.759 168.876 140.781 168.872 140.802L168.831 140.81Z" fill="#F5F5F5"/>
<path d="M74.498 121.052C72.0817 121.054 69.7477 121.83 67.926 123.236C66.1044 124.642 64.9177 126.584 64.5847 128.703C63.4618 128.328 62.2404 128.248 61.0673 128.472C59.8943 128.697 58.8194 129.217 57.9721 129.97C57.1247 130.723 56.5408 131.676 56.2907 132.716C56.0406 133.755 56.1348 134.837 56.562 135.83C53.4107 136.942 50.7952 138.991 49.1653 141.626C47.5354 144.261 46.993 147.316 47.6313 150.266C48.2695 153.217 50.0487 155.878 52.6627 157.793C55.2767 159.707 58.5622 160.756 61.9543 160.757L114.357 192.025L166.57 162.257L167.91 157.809C160.8 165.984 151.298 159.476 151.298 159.476C151.298 159.476 150.574 163.647 146.596 163.902C145.493 163.996 144.384 163.793 143.414 163.318C142.445 162.844 141.66 162.121 141.162 161.245C140.645 163.108 139.513 164.792 137.91 166.083C136.306 167.373 134.305 168.211 132.161 168.488C124.402 169.762 119.872 162.22 119.872 162.22C119.872 162.22 118.417 165.62 114.357 164.71C110.296 163.8 111.735 161.798 111.735 161.798C111.735 161.798 109.425 163.596 105.455 161.718C101.484 159.84 101.213 154.336 101.213 154.336C99.1158 155.07 96.8242 155.255 94.6117 154.868C92.3992 154.481 90.3592 153.538 88.7351 152.152C82.9811 147.311 87.8555 140.657 87.8555 140.657C79.2081 142.157 79.5287 135.874 79.5287 135.874C67.4453 134.411 68.3166 123.913 74.498 121.052Z" fill="#F0F0F0"/>
<path d="M127.846 178.294L126.013 274.842L137.414 269.011L141.162 171.488L127.846 178.294Z" fill="#FAFAFA"/>
<path d="M141.162 171.488L137.414 269.011L148.774 263.208L154.511 164.659L141.162 171.488Z" fill="#FCB016"/>
<path d="M118.122 183.267C117.025 183.774 115.799 184.025 114.562 183.995V279.632C115.799 279.662 117.025 279.411 118.122 278.904L126.013 274.871L127.846 178.324L118.122 183.267Z" fill="#FCB016"/>
<path d="M160.076 257.428L167.77 253.49C168.822 252.88 169.715 252.079 170.391 251.14C171.067 250.201 171.51 249.146 171.691 248.044L181.342 150.944L167.91 157.809L160.076 257.428Z" fill="#FCB016"/>
<path d="M154.511 164.659L148.774 263.208L160.076 257.428L167.91 157.809L154.511 164.659Z" fill="#FAFAFA"/>
<path d="M101.287 178.294L103.12 274.842L91.7188 269.011L87.9705 171.488L101.287 178.294Z" fill="#FCB016"/>
<path d="M87.9705 171.488L91.7189 269.011L80.3588 263.208L74.613 164.659L87.9705 171.488Z" fill="#E6E6E6"/>
<path d="M110.97 183.267C112.068 183.773 113.293 184.023 114.529 183.995V279.632C113.293 279.66 112.068 279.41 110.97 278.904L103.087 274.871L101.254 178.324L110.97 183.267Z" fill="#E6E6E6"/>
<path d="M69.0481 257.428L61.3542 253.49C60.3015 252.881 59.4073 252.08 58.7312 251.141C58.0551 250.202 57.6127 249.146 57.4332 248.044L47.783 150.944L61.2227 157.809L69.0481 257.428Z" fill="#E6E6E6"/>
<path d="M74.613 164.659L80.3588 263.208L69.0563 257.428L61.2227 157.809L74.613 164.659Z" fill="#FCB016"/>
<path opacity="0.1" d="M101.287 178.294L103.12 274.842L91.7188 269.011L87.9705 171.488L101.287 178.294Z" fill="black"/>
<path opacity="0.1" d="M74.613 164.659L80.3588 263.208L69.0563 257.428L61.2227 157.809L74.613 164.659Z" fill="black"/>
<path d="M111.735 161.82C111.084 162.614 110.229 163.258 109.239 163.699C108.25 164.14 107.156 164.364 106.048 164.354C104.941 164.343 103.852 164.097 102.874 163.637C101.896 163.176 101.057 162.515 100.427 161.709C99.7964 160.902 99.3937 159.973 99.2523 159.001C99.1109 158.028 99.2348 157.039 99.6137 156.117C99.9926 155.196 100.615 154.368 101.43 153.703C102.245 153.039 103.227 152.557 104.295 152.298C103.548 153.215 103.101 154.297 103.003 155.425C102.906 156.553 103.162 157.683 103.743 158.691C104.325 159.698 105.209 160.544 106.299 161.134C107.388 161.725 108.641 162.038 109.918 162.038C110.532 162.04 111.143 161.966 111.735 161.82Z" fill="#E0E0E0"/>
<path d="M119.872 162.22C119.951 162.856 119.857 163.499 119.598 164.095C119.338 164.692 118.92 165.225 118.38 165.649C117.84 166.073 117.193 166.376 116.493 166.533C115.793 166.689 115.061 166.695 114.358 166.549C113.655 166.404 113.002 166.111 112.453 165.695C111.905 165.279 111.477 164.753 111.205 164.161C110.934 163.569 110.827 162.927 110.893 162.29C110.959 161.654 111.197 161.041 111.587 160.502C111.685 161.34 112.083 162.128 112.721 162.752C113.527 163.535 114.651 164.003 115.846 164.055C117.041 164.107 118.211 163.738 119.1 163.028C119.395 162.789 119.654 162.517 119.872 162.22Z" fill="#E0E0E0"/>
<path d="M92.2203 133.144C92.8278 133.965 93.2042 134.902 93.3179 135.879C93.4317 136.855 93.2794 137.841 92.874 138.754C92.4685 139.667 91.8217 140.481 90.9878 141.127C90.1538 141.774 89.157 142.233 88.0811 142.468C87.0051 142.702 85.8814 142.705 84.8041 142.475C83.7267 142.246 82.7273 141.791 81.8896 141.148C81.0518 140.506 80.4002 139.695 79.9894 138.784C79.5786 137.872 79.4206 136.887 79.5286 135.91C80.3148 136.972 81.4537 137.792 82.7883 138.257C84.1229 138.722 85.5874 138.808 86.9798 138.505C88.3723 138.201 89.6242 137.523 90.5628 136.563C91.5014 135.602 92.0805 134.408 92.2203 133.144Z" fill="#E0E0E0"/>
<path d="M81.4849 138.975C81.8194 139.541 81.9958 140.17 81.9991 140.809C82.0025 141.448 81.8329 142.079 81.5044 142.648C81.1759 143.217 80.6982 143.708 80.1113 144.079C79.5244 144.451 78.8454 144.693 78.1313 144.784C77.4172 144.875 76.6888 144.813 76.0072 144.604C75.3255 144.395 74.7105 144.043 74.2137 143.58C73.7169 143.117 73.3528 142.554 73.152 141.941C72.9512 141.327 72.9194 140.679 73.0594 140.053C73.4959 140.802 74.1934 141.407 75.0486 141.778C75.5797 142.011 76.1575 142.15 76.749 142.186C77.3405 142.221 77.9342 142.153 78.496 141.985C79.0578 141.818 79.5769 141.554 80.0234 141.208C80.47 140.863 80.8353 140.443 81.0986 139.973C81.2747 139.656 81.4045 139.321 81.4849 138.975Z" fill="#E0E0E0"/>
<path d="M153.27 147.93C153.339 148.911 153.141 149.893 152.693 150.792C152.245 151.692 151.559 152.483 150.694 153.099C149.829 153.715 148.809 154.138 147.721 154.333C146.633 154.528 145.508 154.489 144.441 154.219C143.373 153.949 142.394 153.456 141.587 152.782C140.779 152.107 140.166 151.271 139.798 150.343C139.431 149.415 139.321 148.422 139.477 147.449C139.633 146.475 140.05 145.549 140.694 144.748C140.771 145.878 141.199 146.966 141.932 147.894C142.664 148.821 143.671 149.551 144.842 150.003C146.014 150.455 147.303 150.611 148.569 150.455C149.834 150.298 151.026 149.835 152.013 149.116C152.486 148.769 152.908 148.37 153.27 147.93Z" fill="#E0E0E0"/>
<path d="M160.775 145.032C160.854 145.668 160.76 146.311 160.5 146.907C160.241 147.504 159.823 148.037 159.283 148.461C158.743 148.885 158.095 149.188 157.396 149.345C156.696 149.501 155.964 149.507 155.261 149.361C154.558 149.215 153.905 148.923 153.356 148.507C152.807 148.091 152.379 147.565 152.108 146.973C151.836 146.38 151.729 145.739 151.796 145.102C151.862 144.466 152.1 143.852 152.489 143.314C152.582 144.165 152.983 144.967 153.632 145.6C154.438 146.383 155.562 146.852 156.757 146.903C157.952 146.955 159.122 146.586 160.011 145.877C160.306 145.626 160.563 145.342 160.775 145.032Z" fill="#E0E0E0"/>
<path d="M141.22 138.276C141.865 138.562 142.423 138.98 142.848 139.496C143.273 140.012 143.552 140.611 143.662 141.242C143.772 141.873 143.709 142.518 143.48 143.124C143.25 143.729 142.86 144.277 142.342 144.721C141.825 145.166 141.194 145.494 140.504 145.678C139.813 145.862 139.083 145.897 138.374 145.78C137.665 145.663 136.998 145.397 136.429 145.005C135.861 144.612 135.406 144.105 135.104 143.525C135.849 143.853 136.681 143.993 137.51 143.928C138.339 143.863 139.131 143.597 139.799 143.159C140.468 142.72 140.986 142.127 141.298 141.444C141.61 140.761 141.702 140.015 141.565 139.288C141.502 138.939 141.386 138.598 141.22 138.276Z" fill="#E0E0E0"/>
<path d="M287.314 62.608C276.726 57.3809 262.202 58.24 246.214 66.43C213.72 82.992 187.465 123.316 187.465 156.469C187.465 174.866 195.554 187.183 208.287 191.69C218.512 195.33 231.738 193.874 246.173 186.492C278.592 169.908 304.88 129.584 304.88 96.4309C304.88 79.665 298.156 67.9369 287.314 62.608ZM287.889 82.7153C284.601 85.904 281.116 89.3838 277.639 93.0457C270.631 100.383 264.046 108.029 257.911 115.956C257.089 117.048 256.267 118.103 255.56 119.093C254.771 118.575 253.791 118.338 252.814 118.431C253.061 117.659 253.308 116.851 253.562 116.007L252.288 117.718C251.499 117.2 250.519 116.964 249.543 117.055C249.888 116.007 250.233 114.871 250.578 113.677C253.116 105.053 255.062 96.3013 256.406 87.4692C257.097 83.2031 257.615 78.9953 258.001 75.0932C265.925 73.2004 272.994 73.8629 278.6 76.753C282.231 77.9772 285.435 80.026 287.889 82.6935V82.7153ZM207.711 120.673C213.802 107.955 223.288 95.9213 234.393 87.1853C234.517 88.4083 234.648 89.6459 234.813 90.8908C235.75 90.09 236.695 89.311 237.665 88.5539C238.002 92.0629 238.487 95.7538 239.202 99.2992C240.407 106.191 242.361 112.964 245.038 119.523C245.375 120.36 245.762 121.132 246.066 121.845C244.988 122.895 244.066 124.062 243.32 125.318C242.589 125.078 241.824 124.816 241.002 124.59C234.58 122.893 227.926 121.984 221.225 121.889C217.808 121.765 214.385 121.816 210.975 122.042C211.221 121.525 211.476 121.001 211.731 120.491C210.374 120.506 209.035 120.571 207.711 120.651V120.673ZM213.843 175.594C212.888 174.872 212 174.083 211.188 173.235L210.588 174.225C204.193 169.413 200.33 161.121 200.33 149.895C200.33 149.065 200.379 148.206 200.379 147.369C203.938 146.299 207.777 145.069 211.665 143.663C219.734 140.723 227.534 137.233 234.993 133.224C236.07 132.627 237.098 132.059 238.043 131.491C238.067 132.452 238.394 133.388 238.988 134.192C239.81 133.741 240.575 133.304 241.306 132.867C241.325 133.871 241.683 134.848 242.334 135.67C241.512 136.573 240.69 137.577 239.802 138.633C234.352 145.236 227.743 154.096 221.784 163.116C218.956 167.302 216.293 171.517 213.843 175.572V175.594ZM249.452 174.72C243.698 177.676 238.084 179.437 233.012 179.983C233.316 179.299 233.621 178.607 233.917 177.916C232.547 178.23 231.154 178.461 229.749 178.607C231.599 174.465 233.399 170.075 235.117 165.605C238.515 156.844 241.393 147.931 243.739 138.902C244.035 137.745 244.257 136.624 244.512 135.575C245.111 135.385 245.687 135.141 246.23 134.847C246.811 134.546 247.362 134.201 247.874 133.814C248.091 134.674 248.365 135.523 248.696 136.354C248.696 136.427 248.745 136.493 248.762 136.565C248.992 136.471 249.222 136.354 249.461 136.238C250.044 135.939 250.594 135.593 251.105 135.204H251.146C251.346 136.066 251.604 136.917 251.918 137.752C254.052 143.962 256.955 149.944 260.574 155.588C262.195 158.187 263.984 160.7 265.933 163.116C261.076 167.644 255.529 171.55 249.452 174.72ZM282.012 137.366C281.938 137.519 281.847 137.672 281.757 137.825C279.243 136.21 276.606 134.751 273.866 133.457C273.266 133.158 272.641 132.875 272.024 132.598C267.862 130.947 263.522 129.674 259.07 128.798C258.207 128.623 257.352 128.492 256.604 128.405C256.727 128.15 256.826 127.902 256.924 127.677L255.823 127.451C255.009 127.283 254.186 127.154 253.357 127.065C253.936 125.835 254.283 124.529 254.384 123.199C255.33 122.806 256.365 122.319 257.393 121.838C265.523 117.834 273.334 113.342 280.771 108.392C284.634 105.851 288.448 103.15 292.007 100.58C292.007 101.418 292.057 102.233 292.057 103.063C292.057 103.463 292.057 103.864 292.057 104.271L295.287 101.956C295.287 102.794 295.287 103.602 295.287 104.432C295.287 115.621 291.424 127.91 285.037 139.245C284.067 138.553 283.056 137.941 282.012 137.344V137.366Z" fill="#FCB016"/>
<path opacity="0.4" d="M287.314 62.608C276.726 57.3809 262.202 58.24 246.214 66.43C213.72 82.992 187.465 123.316 187.465 156.469C187.465 174.866 195.554 187.183 208.287 191.69C218.512 195.33 231.738 193.874 246.173 186.492C278.592 169.908 304.88 129.584 304.88 96.4309C304.88 79.665 298.156 67.9369 287.314 62.608ZM287.889 82.7153C284.601 85.904 281.116 89.3838 277.639 93.0457C270.631 100.383 264.046 108.029 257.911 115.956C257.089 117.048 256.267 118.103 255.56 119.093C254.771 118.575 253.791 118.338 252.814 118.431C253.061 117.659 253.308 116.851 253.562 116.007L252.288 117.718C251.499 117.2 250.519 116.964 249.543 117.055C249.888 116.007 250.233 114.871 250.578 113.677C253.116 105.053 255.062 96.3013 256.406 87.4692C257.097 83.2031 257.615 78.9953 258.001 75.0932C265.925 73.2004 272.994 73.8629 278.6 76.753C282.231 77.9772 285.435 80.026 287.889 82.6935V82.7153ZM207.711 120.673C213.802 107.955 223.288 95.9213 234.393 87.1853C234.517 88.4083 234.648 89.6459 234.813 90.8908C235.75 90.09 236.695 89.311 237.665 88.5539C238.002 92.0629 238.487 95.7538 239.202 99.2992C240.407 106.191 242.361 112.964 245.038 119.523C245.375 120.36 245.762 121.132 246.066 121.845C244.988 122.895 244.066 124.062 243.32 125.318C242.589 125.078 241.824 124.816 241.002 124.59C234.58 122.893 227.926 121.984 221.225 121.889C217.808 121.765 214.385 121.816 210.975 122.042C211.221 121.525 211.476 121.001 211.731 120.491C210.374 120.506 209.035 120.571 207.711 120.651V120.673ZM213.843 175.594C212.888 174.872 212 174.083 211.188 173.235L210.588 174.225C204.193 169.413 200.33 161.121 200.33 149.895C200.33 149.065 200.379 148.206 200.379 147.369C203.938 146.299 207.777 145.069 211.665 143.663C219.734 140.723 227.534 137.233 234.993 133.224C236.07 132.627 237.098 132.059 238.043 131.491C238.067 132.452 238.394 133.388 238.988 134.192C239.81 133.741 240.575 133.304 241.306 132.867C241.325 133.871 241.683 134.848 242.334 135.67C241.512 136.573 240.69 137.577 239.802 138.633C234.352 145.236 227.743 154.096 221.784 163.116C218.956 167.302 216.293 171.517 213.843 175.572V175.594ZM249.452 174.72C243.698 177.676 238.084 179.437 233.012 179.983C233.316 179.299 233.621 178.607 233.917 177.916C232.547 178.23 231.154 178.461 229.749 178.607C231.599 174.465 233.399 170.075 235.117 165.605C238.515 156.844 241.393 147.931 243.739 138.902C244.035 137.745 244.257 136.624 244.512 135.575C245.111 135.385 245.687 135.141 246.23 134.847C246.811 134.546 247.362 134.201 247.874 133.814C248.091 134.674 248.365 135.523 248.696 136.354C248.696 136.427 248.745 136.493 248.762 136.565C248.992 136.471 249.222 136.354 249.461 136.238C250.044 135.939 250.594 135.593 251.105 135.204H251.146C251.346 136.066 251.604 136.917 251.918 137.752C254.052 143.962 256.955 149.944 260.574 155.588C262.195 158.187 263.984 160.7 265.933 163.116C261.076 167.644 255.529 171.55 249.452 174.72ZM282.012 137.366C281.938 137.519 281.847 137.672 281.757 137.825C279.243 136.21 276.606 134.751 273.866 133.457C273.266 133.158 272.641 132.875 272.024 132.598C267.862 130.947 263.522 129.674 259.07 128.798C258.207 128.623 257.352 128.492 256.604 128.405C256.727 128.15 256.826 127.902 256.924 127.677L255.823 127.451C255.009 127.283 254.186 127.154 253.357 127.065C253.936 125.835 254.283 124.529 254.384 123.199C255.33 122.806 256.365 122.319 257.393 121.838C265.523 117.834 273.334 113.342 280.771 108.392C284.634 105.851 288.448 103.15 292.007 100.58C292.007 101.418 292.057 102.233 292.057 103.063C292.057 103.463 292.057 103.864 292.057 104.271L295.287 101.956C295.287 102.794 295.287 103.602 295.287 104.432C295.287 115.621 291.424 127.91 285.037 139.245C284.067 138.553 283.056 137.941 282.012 137.344V137.366Z" fill="white"/>
<path d="M287.314 62.608C277.096 58.968 263.87 60.424 249.436 67.8059C217.008 84.3679 190.704 124.685 190.704 157.845C190.704 174.589 197.436 186.332 208.27 191.69C218.866 196.917 233.391 196.058 249.42 187.86C281.839 171.284 308.127 130.967 308.127 97.8068C308.143 79.4102 300.03 67.0852 287.314 62.608ZM256.9 127.633C257.289 126.631 257.527 125.589 257.607 124.532C258.544 124.131 259.579 123.651 260.607 123.163C268.739 119.161 276.553 114.671 283.993 109.724C286.705 107.933 289.393 106.084 291.999 104.228L295.23 101.913C295.23 102.75 295.23 103.558 295.23 104.388C295.23 115.577 291.366 127.866 284.979 139.201C284.026 138.575 283.015 137.963 281.971 137.366C280.409 136.478 278.765 135.626 277.088 134.811C275.411 133.996 273.71 133.253 271.983 132.583C267.821 130.933 263.481 129.659 259.029 128.783C258.166 128.608 257.311 128.477 256.563 128.39C256.702 128.128 256.801 127.866 256.9 127.611V127.633ZM287.889 82.7154C284.601 85.904 281.116 89.3838 277.639 93.0457C270.631 100.383 264.046 108.029 257.911 115.956C257.089 117.048 256.267 118.103 255.56 119.094C254.771 118.575 253.791 118.338 252.814 118.431C253.061 117.659 253.308 116.851 253.562 116.007C253.653 115.694 253.743 115.373 253.842 115.053C256.378 106.429 258.325 97.677 259.67 88.8451C260.36 84.5936 260.87 80.3785 261.256 76.4691C267.717 74.9258 273.586 75.0859 278.601 76.7603C282.231 77.9825 285.434 80.0287 287.889 82.6935V82.7154ZM249.452 136.245C250.035 135.946 250.586 135.6 251.096 135.211H251.138C251.338 136.074 251.596 136.924 251.91 137.759C254.047 143.967 256.952 149.946 260.574 155.588C262.195 158.187 263.985 160.7 265.934 163.116C261.087 167.633 255.554 171.532 249.494 174.698C243.74 177.654 238.125 179.416 233.054 179.962C233.358 179.277 233.662 178.586 233.958 177.894C235.495 174.363 236.983 170.687 238.421 166.974C241.823 158.216 244.701 149.305 247.044 140.278C247.34 139.114 247.554 138 247.808 136.944C248.16 136.847 248.501 136.723 248.828 136.573C248.984 136.456 249.214 136.34 249.452 136.223V136.245ZM203.593 151.271C203.593 150.434 203.642 149.575 203.642 148.745C207.202 147.668 211.04 146.437 214.92 145.039C222.991 142.096 230.793 138.606 238.257 134.6L238.988 134.192C239.81 133.741 240.575 133.304 241.306 132.867C241.325 133.871 241.683 134.848 242.334 135.67C241.512 136.573 240.69 137.577 239.802 138.633C234.352 145.236 227.743 154.096 221.784 163.116C218.956 167.324 216.293 171.539 213.843 175.594C212.888 174.872 212 174.083 211.188 173.235C206.396 168.241 203.593 160.779 203.593 151.249V151.271ZM237.665 88.5758C238.002 92.0847 238.487 95.7757 239.202 99.321C240.407 106.213 242.361 112.986 245.038 119.545C245.375 120.382 245.762 121.154 246.066 121.867C244.988 122.917 244.066 124.084 243.32 125.34C242.589 125.1 241.824 124.837 241.002 124.612C234.58 122.915 227.926 122.006 221.225 121.911C217.808 121.787 214.385 121.838 210.975 122.064C211.221 121.547 211.476 121.023 211.731 120.513C217.261 109.456 225.091 99.4195 234.813 90.9272C235.75 90.09 236.736 89.311 237.665 88.5539V88.5758Z" fill="#FCB016"/>
<path opacity="0.15" d="M287.314 62.608C277.096 58.968 263.87 60.424 249.436 67.8059C217.008 84.3679 190.704 124.685 190.704 157.845C190.704 174.589 197.436 186.332 208.27 191.69C218.866 196.917 233.391 196.058 249.42 187.86C281.839 171.284 308.127 130.967 308.127 97.8068C308.143 79.4102 300.03 67.0852 287.314 62.608ZM256.9 127.633C257.289 126.631 257.527 125.589 257.607 124.532C258.544 124.131 259.579 123.651 260.607 123.163C268.739 119.161 276.553 114.671 283.993 109.724C286.705 107.933 289.393 106.084 291.999 104.228L295.23 101.913C295.23 102.75 295.23 103.558 295.23 104.388C295.23 115.577 291.366 127.866 284.979 139.201C284.026 138.575 283.015 137.963 281.971 137.366C280.409 136.478 278.765 135.626 277.088 134.811C275.411 133.996 273.71 133.253 271.983 132.583C267.821 130.933 263.481 129.659 259.029 128.783C258.166 128.608 257.311 128.477 256.563 128.39C256.702 128.128 256.801 127.866 256.9 127.611V127.633ZM287.889 82.7154C284.601 85.904 281.116 89.3838 277.639 93.0457C270.631 100.383 264.046 108.029 257.911 115.956C257.089 117.048 256.267 118.103 255.56 119.094C254.771 118.575 253.791 118.338 252.814 118.431C253.061 117.659 253.308 116.851 253.562 116.007C253.653 115.694 253.743 115.373 253.842 115.053C256.378 106.429 258.325 97.677 259.67 88.8451C260.36 84.5936 260.87 80.3785 261.256 76.4691C267.717 74.9258 273.586 75.0859 278.601 76.7603C282.231 77.9825 285.434 80.0287 287.889 82.6935V82.7154ZM249.452 136.245C250.035 135.946 250.586 135.6 251.096 135.211H251.138C251.338 136.074 251.596 136.924 251.91 137.759C254.047 143.967 256.952 149.946 260.574 155.588C262.195 158.187 263.985 160.7 265.934 163.116C261.087 167.633 255.554 171.532 249.494 174.698C243.74 177.654 238.125 179.416 233.054 179.962C233.358 179.277 233.662 178.586 233.958 177.894C235.495 174.363 236.983 170.687 238.421 166.974C241.823 158.216 244.701 149.305 247.044 140.278C247.34 139.114 247.554 138 247.808 136.944C248.16 136.847 248.501 136.723 248.828 136.573C248.984 136.456 249.214 136.34 249.452 136.223V136.245ZM203.593 151.271C203.593 150.434 203.642 149.575 203.642 148.745C207.202 147.668 211.04 146.437 214.92 145.039C222.991 142.096 230.793 138.606 238.257 134.6L238.988 134.192C239.81 133.741 240.575 133.304 241.306 132.867C241.325 133.871 241.683 134.848 242.334 135.67C241.512 136.573 240.69 137.577 239.802 138.633C234.352 145.236 227.743 154.096 221.784 163.116C218.956 167.324 216.293 171.539 213.843 175.594C212.888 174.872 212 174.083 211.188 173.235C206.396 168.241 203.593 160.779 203.593 151.249V151.271ZM237.665 88.5758C238.002 92.0847 238.487 95.7757 239.202 99.321C240.407 106.213 242.361 112.986 245.038 119.545C245.375 120.382 245.762 121.154 246.066 121.867C244.988 122.917 244.066 124.084 243.32 125.34C242.589 125.1 241.824 124.837 241.002 124.612C234.58 122.915 227.926 122.006 221.225 121.911C217.808 121.787 214.385 121.838 210.975 122.064C211.221 121.547 211.476 121.023 211.731 120.513C217.261 109.456 225.091 99.4195 234.813 90.9272C235.75 90.09 236.736 89.311 237.665 88.5539V88.5758Z" fill="black"/>
<path d="M242.334 135.648C241.512 136.551 240.69 137.556 239.802 138.611C234.352 145.214 227.743 154.074 221.784 163.094C218.956 167.302 216.293 171.517 213.843 175.572C212.888 174.85 212 174.062 211.188 173.213C213.465 169.457 215.923 165.591 218.529 161.718C224.488 152.705 231.097 143.846 236.547 137.235C237.369 136.187 238.257 135.175 239.07 134.28L238.988 134.17C239.81 133.719 240.575 133.282 241.306 132.845C241.325 133.85 241.683 134.826 242.334 135.648Z" fill="#FCB016"/>
<path opacity="0.4" d="M242.334 135.648C241.512 136.551 240.69 137.556 239.802 138.611C234.352 145.214 227.743 154.074 221.784 163.094C218.956 167.302 216.293 171.517 213.843 175.572C212.888 174.85 212 174.062 211.188 173.213C213.465 169.457 215.923 165.591 218.529 161.718C224.488 152.705 231.097 143.846 236.547 137.235C237.369 136.187 238.257 135.175 239.07 134.28L238.988 134.17C239.81 133.719 240.575 133.282 241.306 132.845C241.325 133.85 241.683 134.826 242.334 135.648Z" fill="black"/>
<path d="M265.925 163.116C261.079 167.633 255.546 171.532 249.485 174.698C243.731 177.654 238.117 179.416 233.045 179.962C233.349 179.277 233.653 178.586 233.949 177.894C238.278 176.883 242.428 175.344 246.279 173.322C252.339 170.154 257.871 166.256 262.719 161.74C260.751 159.325 258.937 156.814 257.286 154.219C253.715 148.625 250.849 142.7 248.737 136.551C248.967 136.456 249.197 136.34 249.436 136.223C250.019 135.925 250.569 135.579 251.08 135.19H251.121C251.321 136.052 251.579 136.903 251.894 137.738C254.034 143.953 256.945 149.94 260.574 155.588C262.192 158.187 263.979 160.7 265.925 163.116Z" fill="#FCB016"/>
<path opacity="0.3" d="M265.925 163.116C261.079 167.633 255.546 171.532 249.485 174.698C243.731 177.654 238.117 179.416 233.045 179.962C233.349 179.277 233.653 178.586 233.949 177.894C238.278 176.883 242.428 175.344 246.279 173.322C252.339 170.154 257.871 166.256 262.719 161.74" fill="black"/>
<path opacity="0.4" d="M260.574 155.588C256.963 149.931 254.071 143.937 251.951 137.716C251.637 136.881 251.379 136.03 251.178 135.168H251.137C250.627 135.557 250.076 135.903 249.493 136.202C249.255 136.318 249.025 136.434 248.795 136.529C250.886 142.683 253.734 148.615 257.286 154.22C258.913 156.813 260.702 159.323 262.645 161.74L265.933 163.116C263.984 160.7 262.195 158.187 260.574 155.588Z" fill="black"/>
<path d="M272.024 132.562C267.862 130.911 263.522 129.637 259.07 128.761C258.207 128.587 257.352 128.456 256.604 128.368C256.727 128.113 256.826 127.866 256.924 127.64C262.156 128.758 267.223 130.409 272.024 132.562Z" fill="#FCB016"/>
<path d="M295.271 104.366C295.271 115.555 291.407 127.844 285.02 139.179C284.067 138.553 283.056 137.941 282.012 137.344C288.029 126.548 291.736 114.908 291.999 104.206L295.229 101.891C295.229 102.728 295.271 103.536 295.271 104.366Z" fill="#FCB016"/>
<path opacity="0.4" d="M272.024 132.562C267.862 130.911 263.522 129.637 259.07 128.761C258.207 128.587 257.352 128.456 256.604 128.368C256.727 128.113 256.826 127.866 256.924 127.64C262.156 128.758 267.223 130.409 272.024 132.562Z" fill="black"/>
<path opacity="0.3" d="M295.271 104.366C295.271 115.555 291.407 127.844 285.02 139.179C284.067 138.553 283.056 137.941 282.012 137.344C288.029 126.548 291.736 114.908 291.999 104.206L295.229 101.891C295.229 102.728 295.271 103.536 295.271 104.366Z" fill="black"/>
<path d="M287.889 82.6935C284.601 85.8822 281.116 89.362 277.639 93.0238C270.631 100.361 264.046 108.007 257.911 115.934C257.089 117.026 256.267 118.082 255.56 119.072C254.771 118.553 253.791 118.316 252.814 118.409C253.061 117.638 253.308 116.829 253.562 115.985L254.648 114.529C260.786 106.607 267.37 98.9626 274.376 91.6261C277.853 87.9861 281.321 84.4698 284.634 81.2958C282.939 79.475 280.894 77.9345 278.592 76.7458C282.227 77.9709 285.434 80.0223 287.889 82.6935Z" fill="#FCB016"/>
<path opacity="0.4" d="M287.889 82.6935C284.601 85.8822 281.116 89.362 277.639 93.0238C270.631 100.361 264.046 108.007 257.911 115.934C257.089 117.026 256.267 118.082 255.56 119.072C254.771 118.553 253.791 118.316 252.814 118.409C253.061 117.638 253.308 116.829 253.562 115.985L254.648 114.529C260.786 106.607 267.37 98.9626 274.376 91.6261C277.853 87.9861 281.321 84.4698 284.634 81.2958C282.939 79.475 280.894 77.9345 278.592 76.7458C282.227 77.9709 285.434 80.0223 287.889 82.6935Z" fill="black"/>
<path d="M246.066 121.845C244.988 122.895 244.066 124.062 243.32 125.318C242.589 125.078 241.824 124.816 241.002 124.59C234.58 122.893 227.926 121.984 221.225 121.889C217.808 121.765 214.385 121.816 210.975 122.042C211.221 121.525 211.476 121.001 211.731 120.491C213.802 120.426 215.89 120.433 217.962 120.491C224.662 120.59 231.316 121.499 237.739 123.192C238.561 123.432 239.334 123.694 240.065 123.92C240.808 122.663 241.731 121.496 242.811 120.448C242.507 119.72 242.12 118.992 241.775 118.125C239.1 111.563 237.146 104.788 235.939 97.8942C235.495 95.5864 235.117 93.2131 234.813 90.8617C235.75 90.0609 236.695 89.2819 237.665 88.5248C238.002 92.0338 238.487 95.7247 239.202 99.2701C240.407 106.162 242.361 112.935 245.038 119.494C245.375 120.36 245.778 121.132 246.066 121.845Z" fill="#FCB016"/>
<path opacity="0.4" d="M242.811 120.477C241.731 121.525 240.808 122.692 240.065 123.949C239.334 123.702 238.561 123.44 237.739 123.221C231.316 121.528 224.662 120.619 217.962 120.52C215.89 120.44 213.802 120.433 211.731 120.52C211.476 121.03 211.221 121.554 210.975 122.071C214.385 121.845 217.808 121.794 221.225 121.918C227.926 122.013 234.58 122.922 241.002 124.619C241.824 124.859 242.589 125.121 243.32 125.347C244.066 124.091 244.988 122.924 246.066 121.874L242.811 120.477Z" fill="black"/>
<path opacity="0.3" d="M242.811 120.477C242.506 119.749 242.12 119.021 241.775 118.154C239.1 111.592 237.146 104.817 235.939 97.9233C235.495 95.6155 235.117 93.2422 234.812 90.8908C235.75 90.09 236.695 89.311 237.665 88.5539C238.002 92.0629 238.487 95.7538 239.202 99.2992C240.407 106.191 242.361 112.964 245.038 119.523C245.375 120.36 245.762 121.132 246.066 121.845" fill="black"/>
<path d="M277.639 82.4241L302.422 95.0841C301.629 94.6873 300.805 94.3418 299.956 94.0503C292.747 91.5096 283.426 92.5142 273.249 97.6903C250.398 109.375 231.878 137.803 231.878 161.172C231.878 172.616 236.333 180.726 243.55 184.657L219.063 172.114C211.616 168.27 206.996 160.087 206.996 148.439C206.996 125.07 225.524 96.6493 248.376 84.9649C258.552 79.7597 267.873 78.755 275.074 81.3249C275.946 81.6407 276.792 82.0105 277.606 82.4314L277.639 82.4241Z" fill="#455A64"/>
<path d="M221.282 168.78C214.912 165.496 211.418 158.274 211.418 148.461C211.418 126.359 229.001 99.3865 250.611 88.3355C256.365 85.4235 261.988 83.8583 266.912 83.8583C269.159 83.841 271.39 84.1991 273.488 84.9139C274.161 85.1602 274.815 85.4473 275.444 85.773L283.343 89.8134C279.046 90.8249 274.925 92.3533 271.096 94.3561C247.077 106.645 227.53 136.624 227.53 161.194C227.479 165.124 228.032 169.043 229.174 172.842L221.282 168.78Z" fill="#37474F"/>
<path d="M299.981 94.0503C292.78 91.5023 283.458 92.5142 273.282 97.6903C250.43 109.382 231.903 137.796 231.903 161.172C231.903 172.987 236.646 181.243 244.29 185.021C251.754 188.705 261.988 188.101 273.282 182.32C296.134 170.672 314.662 142.222 314.662 118.853C314.662 105.909 308.957 97.2244 299.981 94.0503Z" fill="#37474F"/>
<path d="M207.144 145.658L232.034 158.384C232.133 156.709 232.33 155.013 232.601 153.288L207.719 140.562C207.424 142.29 207.232 143.989 207.144 145.658Z" fill="#455A64"/>
<path d="M240.427 89.857L265.309 102.582C266.821 101.512 268.367 100.508 269.928 99.5758L245.046 86.8577C243.485 87.7822 241.939 88.816 240.427 89.857Z" fill="#455A64"/>
<path d="M228.648 100.224C227.521 101.418 226.436 102.655 225.36 103.915L250.25 116.64C251.302 115.373 252.395 114.143 253.538 112.942L228.648 100.224Z" fill="#455A64"/>
<path d="M215.282 118.882C214.526 120.295 213.819 121.722 213.161 123.163L238.043 135.888C238.701 134.432 239.408 133.006 240.164 131.608L215.282 118.882Z" fill="#455A64"/>
<path d="M302.422 95.0914C301.631 94.6892 300.807 94.3412 299.956 94.0503C293.117 91.6406 284.412 92.4196 274.852 96.9623C278.485 95.1933 284.116 92.5142 290.47 89.0271L302.422 95.0914Z" fill="black"/>
<path d="M273.282 97.7122C285.176 91.7935 333.017 70.8126 333.017 40.7898L308.143 28.0644C308.143 58.0871 260.303 79.0681 248.408 84.9867L252.831 87.2435L256.587 85.0595L273.331 93.6281L268.983 95.5136L273.282 97.7122Z" fill="#455A64"/>
<path d="M256.587 85.0595C273.307 76.8549 306.918 59.0335 311.604 33.9466L328.915 42.8064C326.942 67.6676 288.826 86.1224 274.244 93.184L273.332 93.6281L256.587 85.0595Z" fill="#37474F"/>
<path d="M287.568 61.88C286.314 62.8895 285.034 63.8772 283.73 64.843L308.669 77.532C309.968 76.571 311.25 75.581 312.5 74.5618L287.568 61.88Z" fill="#455A64"/>
<path d="M267.849 75.0277C266.262 75.9231 264.701 76.7749 263.196 77.5829L288.144 90.272C289.646 89.4663 291.196 88.6146 292.797 87.7167L267.849 75.0277Z" fill="#455A64"/>
<path d="M302.381 46.0387C301.592 47.2715 300.737 48.4848 299.816 49.6787L324.731 62.3532C325.644 61.1666 326.499 59.9654 327.288 58.7132L302.381 46.0387Z" fill="#455A64"/>
<path d="M256.587 85.0595C252.691 86.9523 249.296 89.0271 249.296 89.0271L265.736 97.4355C265.736 97.4355 269.18 95.6446 273.331 93.6281L256.587 85.0595Z" fill="#37474F"/>
<path d="M310.141 74.256C299.553 69.029 285.028 69.888 268.999 78.078C236.58 94.6618 210.292 134.986 210.292 168.139C210.292 186.535 218.381 198.853 231.122 203.359C241.339 206.999 254.565 205.544 268.999 198.162C301.427 181.578 327.715 141.261 327.715 108.101C327.715 91.3494 320.983 79.6214 310.141 74.256ZM310.724 94.3633C307.436 97.552 303.943 101.032 300.466 104.694C293.46 112.033 286.876 119.679 280.738 127.604C279.916 128.696 279.094 129.751 278.387 130.742C277.598 130.223 276.618 129.986 275.641 130.079C275.888 129.307 276.143 128.499 276.389 127.655C275.945 128.244 275.526 128.812 275.123 129.366C274.334 128.849 273.354 128.612 272.378 128.703C272.723 127.655 273.068 126.519 273.414 125.325C275.947 116.7 277.894 107.949 279.242 99.1172C279.932 94.8511 280.442 90.6433 280.828 86.7412C288.752 84.8484 295.821 85.5109 301.436 88.401C305.066 89.6402 308.266 91.7011 310.716 94.3779L310.724 94.3633ZM230.538 132.321C236.637 119.603 246.156 107.569 257.22 98.8333C257.344 100.056 257.483 101.294 257.639 102.539C258.577 101.738 259.527 100.959 260.492 100.202C260.829 103.711 261.314 107.402 262.029 110.947C263.232 117.84 265.189 124.613 267.873 131.171C268.21 132.008 268.588 132.78 268.901 133.493C267.821 134.543 266.896 135.71 266.147 136.966C265.424 136.726 264.651 136.464 263.829 136.238C257.407 134.541 250.753 133.632 244.052 133.537C240.635 133.413 237.212 133.464 233.801 133.69C234.048 133.173 234.303 132.649 234.566 132.139C233.21 132.19 231.87 132.256 230.538 132.336V132.321ZM236.678 187.242C235.718 186.522 234.827 185.733 234.015 184.883L233.415 185.873C227.02 181.061 223.165 172.733 223.165 161.543C223.165 160.713 223.214 159.854 223.214 159.017C226.765 157.947 230.612 156.717 234.492 155.312C242.563 152.37 250.365 148.88 257.828 144.872C258.897 144.275 259.925 143.707 260.878 143.139C260.899 144.099 261.224 145.035 261.815 145.84C262.637 145.389 263.402 144.952 264.133 144.515C264.152 145.519 264.51 146.496 265.161 147.318C264.339 148.221 263.517 149.225 262.637 150.281C257.179 156.884 250.57 165.744 244.619 174.764C241.783 178.986 239.128 183.201 236.678 187.256V187.242ZM272.287 186.368C266.492 189.324 260.919 191.085 255.806 191.631C256.111 190.947 256.423 190.256 256.719 189.564C255.349 189.877 253.956 190.108 252.551 190.256C254.393 186.113 256.193 181.723 257.911 177.253C261.316 168.494 264.195 159.58 266.533 150.55C266.838 149.393 267.051 148.272 267.306 147.223C267.906 147.035 268.482 146.791 269.024 146.495C269.607 146.196 270.157 145.85 270.668 145.462H270.709C270.916 146.321 271.177 147.169 271.49 148.002L271.564 148.214C271.786 148.119 272.016 148.002 272.263 147.886C272.846 147.587 273.396 147.241 273.907 146.852H273.956C274.152 147.715 274.41 148.566 274.729 149.4C276.842 155.624 279.734 161.618 283.352 167.273C284.973 169.869 286.759 172.383 288.703 174.8C283.861 179.31 278.337 183.203 272.287 186.368ZM304.847 149.014C304.765 149.167 304.674 149.32 304.584 149.473C302.07 147.858 299.433 146.399 296.693 145.105C296.093 144.806 295.476 144.523 294.86 144.246C290.696 142.592 286.352 141.318 281.897 140.446C281.034 140.271 280.179 140.14 279.431 140.053C279.551 139.815 279.658 139.572 279.751 139.325L278.658 139.048C277.844 138.88 277.021 138.751 276.192 138.662C276.764 137.43 277.111 136.125 277.219 134.796C278.157 134.403 279.192 133.916 280.22 133.435C288.35 129.431 296.161 124.939 303.597 119.989C307.461 117.448 311.275 114.747 314.834 112.178C314.834 113.015 314.884 113.83 314.884 114.66C314.884 115.06 314.884 115.461 314.884 115.868C315.985 115.09 317.062 114.311 318.122 113.553C318.122 114.391 318.122 115.199 318.122 116.029C318.122 127.218 314.267 139.507 307.872 150.842C306.902 150.23 305.894 149.626 304.847 149.029V149.014Z" fill="#FCB016"/>
<path opacity="0.4" d="M310.141 74.256C299.553 69.029 285.028 69.888 268.999 78.078C236.58 94.6618 210.292 134.986 210.292 168.139C210.292 186.535 218.381 198.853 231.122 203.359C241.339 206.999 254.565 205.544 268.999 198.162C301.427 181.578 327.715 141.261 327.715 108.101C327.715 91.3494 320.983 79.6214 310.141 74.256ZM310.724 94.3633C307.436 97.552 303.943 101.032 300.466 104.694C293.46 112.033 286.876 119.679 280.738 127.604C279.916 128.696 279.094 129.751 278.387 130.742C277.598 130.223 276.618 129.986 275.641 130.079C275.888 129.307 276.143 128.499 276.389 127.655C275.945 128.244 275.526 128.812 275.123 129.366C274.334 128.849 273.354 128.612 272.378 128.703C272.723 127.655 273.068 126.519 273.414 125.325C275.947 116.7 277.894 107.949 279.242 99.1172C279.932 94.8511 280.442 90.6433 280.828 86.7412C288.752 84.8484 295.821 85.5109 301.436 88.401C305.066 89.6402 308.266 91.7011 310.716 94.3779L310.724 94.3633ZM230.538 132.321C236.637 119.603 246.156 107.569 257.22 98.8333C257.344 100.056 257.483 101.294 257.639 102.539C258.577 101.738 259.527 100.959 260.492 100.202C260.829 103.711 261.314 107.402 262.029 110.947C263.232 117.84 265.189 124.613 267.873 131.171C268.21 132.008 268.588 132.78 268.901 133.493C267.821 134.543 266.896 135.71 266.147 136.966C265.424 136.726 264.651 136.464 263.829 136.238C257.407 134.541 250.753 133.632 244.052 133.537C240.635 133.413 237.212 133.464 233.801 133.69C234.048 133.173 234.303 132.649 234.566 132.139C233.21 132.19 231.87 132.256 230.538 132.336V132.321ZM236.678 187.242C235.718 186.522 234.827 185.733 234.015 184.883L233.415 185.873C227.02 181.061 223.165 172.733 223.165 161.543C223.165 160.713 223.214 159.854 223.214 159.017C226.765 157.947 230.612 156.717 234.492 155.312C242.563 152.37 250.365 148.88 257.828 144.872C258.897 144.275 259.925 143.707 260.878 143.139C260.899 144.099 261.224 145.035 261.815 145.84C262.637 145.389 263.402 144.952 264.133 144.515C264.152 145.519 264.51 146.496 265.161 147.318C264.339 148.221 263.517 149.225 262.637 150.281C257.179 156.884 250.57 165.744 244.619 174.764C241.783 178.986 239.128 183.201 236.678 187.256V187.242ZM272.287 186.368C266.492 189.324 260.919 191.085 255.806 191.631C256.111 190.947 256.423 190.256 256.719 189.564C255.349 189.877 253.956 190.108 252.551 190.256C254.393 186.113 256.193 181.723 257.911 177.253C261.316 168.494 264.195 159.58 266.533 150.55C266.838 149.393 267.051 148.272 267.306 147.223C267.906 147.035 268.482 146.791 269.024 146.495C269.607 146.196 270.157 145.85 270.668 145.462H270.709C270.916 146.321 271.177 147.169 271.49 148.002L271.564 148.214C271.786 148.119 272.016 148.002 272.263 147.886C272.846 147.587 273.396 147.241 273.907 146.852H273.956C274.152 147.715 274.41 148.566 274.729 149.4C276.842 155.624 279.734 161.618 283.352 167.273C284.973 169.869 286.759 172.383 288.703 174.8C283.861 179.31 278.337 183.203 272.287 186.368ZM304.847 149.014C304.765 149.167 304.674 149.32 304.584 149.473C302.07 147.858 299.433 146.399 296.693 145.105C296.093 144.806 295.476 144.523 294.86 144.246C290.696 142.592 286.352 141.318 281.897 140.446C281.034 140.271 280.179 140.14 279.431 140.053C279.551 139.815 279.658 139.572 279.751 139.325L278.658 139.048C277.844 138.88 277.021 138.751 276.192 138.662C276.764 137.43 277.111 136.125 277.219 134.796C278.157 134.403 279.192 133.916 280.22 133.435C288.35 129.431 296.161 124.939 303.597 119.989C307.461 117.448 311.275 114.747 314.834 112.178C314.834 113.015 314.884 113.83 314.884 114.66C314.884 115.06 314.884 115.461 314.884 115.868C315.985 115.09 317.062 114.311 318.122 113.553C318.122 114.391 318.122 115.199 318.122 116.029C318.122 127.218 314.267 139.507 307.872 150.842C306.902 150.23 305.894 149.626 304.847 149.029V149.014Z" fill="white"/>
<path d="M310.141 74.256C299.923 70.616 286.697 72.072 272.263 79.4539C239.835 96.0377 213.547 136.354 213.547 169.515C213.547 186.259 220.28 198.001 231.122 203.359C241.709 208.587 256.234 207.727 272.263 199.53C304.683 182.954 330.97 142.637 330.97 109.477C330.97 91.0946 322.882 78.7696 310.141 74.256ZM279.727 139.281C280.116 138.279 280.354 137.237 280.434 136.18C281.379 135.779 282.415 135.299 283.442 134.811C291.572 130.809 299.382 126.319 306.82 121.372C309.532 119.581 312.22 117.732 314.826 115.876C315.927 115.097 317.004 114.318 318.065 113.561C318.065 114.398 318.065 115.206 318.065 116.036C318.065 127.225 314.209 139.514 307.814 150.849C306.861 150.223 305.861 149.611 304.814 149.014C303.244 148.126 301.6 147.274 299.923 146.459C298.246 145.644 296.553 144.901 294.827 144.231C290.663 142.577 286.32 141.304 281.864 140.431C281.001 140.256 280.146 140.125 279.398 140.038C279.521 139.796 279.631 139.548 279.727 139.296V139.281ZM310.716 94.3779C307.428 97.5665 303.934 101.046 300.457 104.708C293.452 112.047 286.867 119.694 280.729 127.618C279.907 128.71 279.085 129.766 278.379 130.756C277.59 130.237 276.61 130.001 275.633 130.094C275.88 129.322 276.134 128.514 276.381 127.669C276.48 127.356 276.562 127.036 276.661 126.716C279.201 118.092 281.147 109.34 282.489 100.508C283.179 96.2561 283.697 92.041 284.083 88.1317C290.536 86.5883 296.413 86.7485 301.427 88.4229C305.058 89.6548 308.261 91.708 310.716 94.3779ZM272.279 147.908C272.862 147.609 273.413 147.263 273.923 146.874H273.973C274.169 147.737 274.427 148.588 274.745 149.422C276.858 155.646 279.75 161.64 283.368 167.294C284.989 169.891 286.776 172.405 288.719 174.822C283.871 179.338 278.338 183.236 272.279 186.404C266.484 189.36 260.911 191.122 255.798 191.668C256.102 190.984 256.415 190.292 256.711 189.6C258.239 186.07 259.727 182.393 261.166 178.68C264.568 169.922 267.446 161.011 269.789 151.985C270.085 150.82 270.298 149.706 270.561 148.65C270.913 148.554 271.254 148.429 271.581 148.279C271.811 148.141 272.082 148.024 272.287 147.908H272.279ZM226.412 162.934C226.412 162.096 226.461 161.237 226.461 160.408C230.02 159.33 233.859 158.1 237.747 156.702C245.815 153.759 253.614 150.269 261.075 146.262L261.807 145.855C262.629 145.403 263.393 144.967 264.125 144.53C264.144 145.534 264.502 146.51 265.153 147.333C264.331 148.235 263.509 149.24 262.629 150.296C257.171 156.899 250.562 165.758 244.611 174.778C241.775 178.986 239.12 183.201 236.67 187.256C235.71 186.537 234.819 185.748 234.007 184.897C229.223 179.925 226.42 172.463 226.42 162.934H226.412ZM260.484 100.238C260.821 103.747 261.306 107.438 262.021 110.984C263.224 117.877 265.181 124.65 267.865 131.207C268.202 132.045 268.58 132.816 268.893 133.53C267.813 134.58 266.887 135.746 266.139 137.002C265.416 136.762 264.643 136.5 263.821 136.274C257.399 134.577 250.744 133.668 244.044 133.573C240.626 133.449 237.204 133.5 233.793 133.726C234.04 133.209 234.295 132.685 234.558 132.176C240.085 121.119 247.912 111.082 257.631 102.59C258.574 101.779 259.527 100.995 260.492 100.238H260.484Z" fill="#FCB016"/>
<path d="M265.161 147.333C264.339 148.235 263.517 149.24 262.637 150.296C257.179 156.899 250.57 165.758 244.619 174.778C241.783 178.986 239.128 183.201 236.678 187.256C235.718 186.537 234.827 185.748 234.015 184.897C236.3 181.141 238.758 177.275 241.356 173.402C247.315 164.39 253.924 155.53 259.374 148.92C260.196 147.871 261.084 146.859 261.906 145.964L261.815 145.855C262.637 145.403 263.402 144.967 264.133 144.53C264.152 145.534 264.51 146.51 265.161 147.333Z" fill="#FCB016"/>
<path opacity="0.3" d="M265.161 147.333C264.339 148.235 263.517 149.24 262.637 150.296C257.179 156.899 250.57 165.758 244.619 174.778C241.783 178.986 239.128 183.201 236.678 187.256C235.718 186.537 234.827 185.748 234.015 184.897C236.3 181.141 238.758 177.275 241.356 173.402C247.315 164.39 253.924 155.53 259.374 148.92C260.196 147.871 261.084 146.859 261.906 145.964L261.815 145.855C262.637 145.403 263.402 144.967 264.133 144.53C264.152 145.534 264.51 146.51 265.161 147.333Z" fill="black"/>
<path d="M288.752 174.8C283.904 179.317 278.371 183.215 272.312 186.383C266.517 189.338 260.944 191.1 255.831 191.646C256.135 190.962 256.448 190.27 256.743 189.578C261.072 188.566 265.221 187.027 269.073 185.007C275.131 181.836 280.663 177.939 285.513 173.424C283.565 171.01 281.772 168.499 280.146 165.904C276.578 160.309 273.714 154.384 271.605 148.235C271.827 148.141 272.057 148.024 272.304 147.908C272.887 147.609 273.437 147.263 273.948 146.874H273.997C274.193 147.737 274.452 148.588 274.77 149.422C276.883 155.646 279.775 161.64 283.393 167.294C285.017 169.884 286.807 172.39 288.752 174.8Z" fill="#FCB016"/>
<path opacity="0.2" d="M288.752 174.8C283.904 179.317 278.371 183.215 272.312 186.383C266.517 189.338 260.944 191.1 255.831 191.646C256.135 190.962 256.448 190.27 256.743 189.578C261.072 188.566 265.221 187.027 269.073 185.007C275.131 181.836 280.663 177.939 285.513 173.424" fill="black"/>
<path opacity="0.3" d="M283.401 167.273C279.783 161.618 276.891 155.624 274.778 149.4C274.46 148.566 274.202 147.715 274.006 146.852H273.956C273.446 147.241 272.895 147.587 272.312 147.886C272.066 148.002 271.835 148.119 271.614 148.214C273.722 154.362 276.586 160.287 280.154 165.882C281.781 168.477 283.573 170.988 285.522 173.402L288.81 174.778C286.848 172.369 285.042 169.863 283.401 167.273Z" fill="black"/>
<path d="M294.86 144.246C290.696 142.592 286.352 141.318 281.897 140.446C281.034 140.271 280.179 140.14 279.431 140.053C279.551 139.815 279.658 139.572 279.751 139.325C284.985 140.443 290.055 142.095 294.86 144.246Z" fill="#FCB016"/>
<path d="M318.114 116.05C318.114 127.24 314.259 139.528 307.864 150.863C306.91 150.237 305.91 149.626 304.863 149.029C310.872 138.233 314.588 126.592 314.842 115.89C315.944 115.111 317.021 114.332 318.081 113.575C318.065 114.412 318.114 115.221 318.114 116.05Z" fill="#FCB016"/>
<path opacity="0.3" d="M294.86 144.246C290.696 142.592 286.352 141.318 281.897 140.446C281.034 140.271 280.179 140.14 279.431 140.053C279.551 139.815 279.658 139.572 279.751 139.325C284.985 140.443 290.055 142.095 294.86 144.246Z" fill="black"/>
<path opacity="0.2" d="M318.114 116.05C318.114 127.24 314.259 139.528 307.864 150.863C306.91 150.237 305.91 149.626 304.863 149.029C310.872 138.233 314.588 126.592 314.842 115.89C315.944 115.111 317.021 114.332 318.081 113.575C318.065 114.412 318.114 115.221 318.114 116.05Z" fill="black"/>
<path d="M310.716 94.3779C307.428 97.5665 303.935 101.046 300.457 104.708C293.452 112.047 286.868 119.694 280.729 127.618C279.907 128.71 279.085 129.766 278.379 130.756C277.59 130.237 276.61 130.001 275.633 130.094C275.88 129.322 276.134 128.514 276.381 127.669L277.474 126.213C283.61 118.289 290.194 110.645 297.202 103.31C300.679 99.6705 304.148 96.1542 307.453 92.9801C305.759 91.1612 303.717 89.621 301.419 88.4301C305.052 89.6589 308.257 91.7097 310.716 94.3779Z" fill="#FCB016"/>
<path opacity="0.3" d="M310.716 94.3779C307.428 97.5665 303.935 101.046 300.457 104.708C293.452 112.047 286.868 119.694 280.729 127.618C279.907 128.71 279.085 129.766 278.379 130.756C277.59 130.237 276.61 130.001 275.633 130.094C275.88 129.322 276.134 128.514 276.381 127.669L277.474 126.213C283.61 118.289 290.194 110.645 297.202 103.31C300.679 99.6705 304.148 96.1542 307.453 92.9801C305.759 91.1612 303.717 89.621 301.419 88.4301C305.052 89.6589 308.257 91.7097 310.716 94.3779Z" fill="black"/>
<path d="M268.901 133.53C267.821 134.58 266.896 135.746 266.147 137.002C265.424 136.762 264.651 136.5 263.829 136.274C257.407 134.577 250.753 133.668 244.052 133.573C240.635 133.449 237.212 133.5 233.802 133.726C234.048 133.209 234.303 132.685 234.566 132.176C236.637 132.11 238.725 132.117 240.797 132.176C247.498 132.278 254.151 133.189 260.574 134.884C261.396 135.124 262.161 135.386 262.892 135.612C263.637 134.356 264.56 133.189 265.638 132.139C265.333 131.411 264.947 130.683 264.602 129.817C261.93 123.255 259.978 116.48 258.774 109.586C258.322 107.278 257.952 104.905 257.64 102.553C258.577 101.753 259.527 100.974 260.492 100.216C260.829 103.725 261.314 107.416 262.029 110.962C263.232 117.855 265.19 124.628 267.873 131.186C268.21 132.045 268.589 132.816 268.901 133.53Z" fill="#FCB016"/>
<path opacity="0.3" d="M265.638 132.161C264.56 133.211 263.637 134.378 262.892 135.634C262.161 135.386 261.388 135.124 260.574 134.906C254.151 133.213 247.497 132.304 240.797 132.205C238.725 132.125 236.637 132.117 234.566 132.205C234.303 132.714 234.048 133.239 233.802 133.755C237.212 133.529 240.635 133.478 244.052 133.603C250.762 133.681 257.427 134.575 263.862 136.26C264.684 136.5 265.457 136.762 266.18 136.988C266.929 135.732 267.854 134.565 268.934 133.515L265.638 132.161Z" fill="black"/>
<path opacity="0.2" d="M265.637 132.161C265.333 131.433 264.947 130.705 264.602 129.839C261.93 123.276 259.978 116.501 258.774 109.608C258.322 107.3 257.952 104.927 257.639 102.575C258.576 101.774 259.527 100.995 260.492 100.238C260.829 103.747 261.314 107.438 262.029 110.984C263.232 117.877 265.189 124.65 267.873 131.207C268.21 132.045 268.588 132.816 268.901 133.53" fill="black"/>
<path d="M218.364 285.565H211.024L212.199 291.906C212.246 292.076 212.334 292.234 212.458 292.37C212.581 292.506 212.737 292.616 212.915 292.692C213.464 292.936 214.071 293.064 214.686 293.064C215.301 293.064 215.907 292.936 216.457 292.692C216.636 292.617 216.792 292.508 216.916 292.371C217.04 292.235 217.128 292.076 217.172 291.906L218.364 285.565Z" fill="#FAFAFA"/>
<path d="M214.698 287.283C216.732 287.283 218.381 286.439 218.381 285.398C218.381 284.357 216.732 283.512 214.698 283.512C212.664 283.512 211.016 284.357 211.016 285.398C211.016 286.439 212.664 287.283 214.698 287.283Z" fill="#FAFAFA"/>
<path d="M181.029 266.332H173.688L174.864 272.672C174.911 272.841 175 272.998 175.123 273.133C175.247 273.267 175.403 273.376 175.579 273.451C176.128 273.699 176.735 273.828 177.35 273.828C177.966 273.828 178.573 273.699 179.122 273.451C179.298 273.376 179.454 273.267 179.578 273.133C179.701 272.998 179.79 272.841 179.837 272.672L181.029 266.332Z" fill="#FAFAFA"/>
<path d="M174.749 264.825C173.311 265.553 173.311 266.754 174.749 267.489C175.556 267.852 176.449 268.042 177.355 268.042C178.26 268.042 179.153 267.852 179.961 267.489C181.407 266.761 181.407 265.56 179.961 264.825C179.153 264.461 178.26 264.272 177.355 264.272C176.449 264.272 175.556 264.461 174.749 264.825Z" fill="#FAFAFA"/>
<path d="M324.805 237.867H317.465L318.632 244.208C318.675 244.377 318.762 244.536 318.884 244.672C319.006 244.808 319.162 244.918 319.339 244.994C319.889 245.241 320.497 245.37 321.114 245.37C321.731 245.37 322.34 245.241 322.89 244.994C323.067 244.917 323.223 244.807 323.347 244.671C323.47 244.536 323.558 244.377 323.605 244.208L324.805 237.867Z" fill="#FAFAFA"/>
<path d="M318.525 236.367C317.086 237.095 317.086 238.296 318.525 239.032C319.332 239.395 320.225 239.584 321.131 239.584C322.036 239.584 322.929 239.395 323.736 239.032C325.175 238.304 325.175 237.102 323.736 236.367C322.929 236.004 322.036 235.815 321.131 235.815C320.225 235.815 319.332 236.004 318.525 236.367Z" fill="#FAFAFA"/>
<path d="M287.462 218.633H280.121L281.297 224.974C281.344 225.142 281.432 225.299 281.556 225.434C281.679 225.569 281.835 225.678 282.012 225.753C282.562 226 283.17 226.129 283.787 226.129C284.404 226.129 285.013 226 285.563 225.753C285.739 225.679 285.895 225.57 286.017 225.435C286.14 225.3 286.226 225.143 286.27 224.974L287.462 218.633Z" fill="#FAFAFA"/>
<path d="M281.19 217.126C279.751 217.854 279.751 219.055 281.19 219.798C281.997 220.161 282.89 220.35 283.795 220.35C284.701 220.35 285.594 220.161 286.401 219.798C287.84 219.07 287.84 217.869 286.401 217.126C285.594 216.763 284.701 216.574 283.795 216.574C282.89 216.574 281.997 216.763 281.19 217.126Z" fill="#FAFAFA"/>
<path d="M330.657 204.568V234.846C330.589 235.939 330.231 237.003 329.612 237.951C328.994 238.9 328.133 239.706 327.098 240.306L324.196 241.762H324.147C322.769 242.361 321.225 242.596 319.7 242.439L231.417 285.769C231.312 286.821 230.941 287.837 230.332 288.745C229.723 289.652 228.892 290.427 227.899 291.011L225.006 292.467C224.92 292.516 224.83 292.558 224.734 292.59C224.687 292.615 224.637 292.637 224.586 292.656H224.545C222.791 293.302 220.836 293.382 219.021 292.882C218.811 292.826 218.605 292.758 218.405 292.678L218.306 292.641C218.158 292.583 218.019 292.518 217.887 292.452L171.551 268.858C170.516 268.259 169.654 267.452 169.036 266.504C168.417 265.555 168.06 264.491 167.992 263.398V212.627C168.062 211.534 168.42 210.47 169.038 209.522C169.657 208.574 170.517 207.767 171.551 207.167L273.668 154.918C274.771 154.423 275.99 154.165 277.227 154.165C278.464 154.165 279.684 154.423 280.787 154.918L283.688 156.374C284.749 156.99 285.66 157.787 286.366 158.72C287.072 159.653 287.559 160.702 287.798 161.805L290.593 180.391L327.106 199.064C328.146 199.669 329.01 200.483 329.627 201.439C330.244 202.396 330.597 203.468 330.657 204.568Z" fill="#37474F"/>
<path d="M283.689 156.396L280.795 154.94C279.692 154.445 278.473 154.186 277.236 154.186C275.999 154.186 274.78 154.445 273.677 154.94L171.551 207.167C171.338 207.276 171.116 207.414 171.181 207.371C169.467 208.516 168.333 210.214 168.025 212.096C168.288 210.487 169.768 209.912 171.543 210.807L174.445 212.263C175.548 212.759 176.767 213.017 178.004 213.017C179.241 213.017 180.46 212.759 181.563 212.263L283.689 160.007C285.653 159.032 285.653 157.401 283.689 156.396Z" fill="#455A64"/>
<path d="M330.658 204.568V234.846C330.589 235.939 330.231 237.003 329.613 237.951C328.995 238.9 328.133 239.706 327.098 240.306L324.197 241.762H324.147C322.865 242.351 321.419 242.603 319.98 242.49C318.964 242.437 317.974 242.189 317.078 241.762L284.133 224.952C283.098 224.353 282.236 223.546 281.618 222.598C281 221.649 280.642 220.585 280.573 219.492V189.178C280.641 188.084 280.998 187.02 281.616 186.072C282.235 185.123 283.097 184.317 284.133 183.718L290.585 180.413L327.098 199.086C328.136 199.688 329 200.498 329.618 201.45C330.237 202.403 330.593 203.471 330.658 204.568Z" fill="black"/>
<path d="M290.585 180.413L284.133 183.718C282.176 184.715 282.176 186.353 284.133 187.358L317.078 204.204C318.114 204.803 318.975 205.609 319.593 206.558C320.212 207.506 320.569 208.57 320.638 209.664V239.949C320.638 241.951 322.24 242.766 324.197 241.769L327.098 240.313C328.132 239.712 328.993 238.906 329.611 237.958C330.229 237.009 330.588 235.946 330.658 234.853V204.568C330.588 203.475 330.229 202.411 329.611 201.463C328.993 200.515 328.132 199.708 327.098 199.108L290.585 180.413Z" fill="#455A64"/>
<path d="M320.638 209.664V239.949C320.638 241.951 322.24 242.766 324.197 241.769L327.098 240.313C328.132 239.712 328.993 238.906 329.611 237.958C330.229 237.009 330.588 235.946 330.658 234.853V204.568C330.619 203.463 330.263 202.386 329.622 201.438L319.602 206.534C320.245 207.481 320.602 208.559 320.638 209.664Z" fill="#37474F"/>
<path d="M319.158 242.49C318.816 243.117 318.379 243.7 317.859 244.222C316.851 245.04 315.726 245.738 314.514 246.297L235.725 286.614C235.173 286.861 234.564 286.99 233.945 286.99C233.327 286.99 232.717 286.861 232.166 286.614L220.592 280.695L197.436 268.858C196.361 268.355 195.46 267.602 194.832 266.679C194.204 265.757 193.873 264.7 193.873 263.623C193.873 262.546 194.204 261.49 194.832 260.567C195.46 259.645 196.361 258.892 197.436 258.389L210.588 251.67L220.608 246.574L276.192 218.087C277.296 217.594 278.515 217.337 279.751 217.337C280.987 217.337 282.206 217.594 283.31 218.087L316.256 234.94C317.272 235.504 318.123 236.272 318.741 237.181C319.36 238.09 319.728 239.116 319.815 240.174C319.787 240.979 319.563 241.769 319.158 242.49Z" fill="black"/>
<path d="M235.733 279.785L318.04 237.663C319.018 237.161 319.816 237.568 319.816 238.573V241.762C319.782 242.308 319.603 242.84 319.295 243.314C318.987 243.788 318.557 244.191 318.04 244.492L235.725 286.614C234.747 287.116 233.949 286.708 233.949 285.704V282.515C233.983 281.968 234.162 281.435 234.472 280.961C234.782 280.486 235.214 280.083 235.733 279.785Z" fill="#37474F"/>
<path d="M276.192 202.471L197.436 242.773C196.401 243.372 195.539 244.178 194.92 245.127C194.302 246.076 193.944 247.14 193.877 248.233V254.611C193.944 255.704 194.302 256.769 194.92 257.717C195.539 258.666 196.401 259.472 197.436 260.071L230.39 276.917C231.493 277.412 232.713 277.671 233.949 277.671C235.186 277.671 236.406 277.412 237.509 276.917L316.256 236.6C317.292 236.001 318.153 235.195 318.771 234.246C319.39 233.298 319.747 232.234 319.816 231.14V224.755C319.748 223.662 319.391 222.598 318.772 221.649C318.154 220.7 317.292 219.894 316.256 219.295L283.311 202.45C282.206 201.957 280.985 201.703 279.748 201.707C278.511 201.71 277.293 201.972 276.192 202.471Z" fill="#37474F"/>
<path d="M233.949 264.009V277.674C232.712 277.704 231.487 277.453 230.39 276.946L197.436 260.1C196.401 259.501 195.539 258.695 194.92 257.746C194.302 256.798 193.944 255.734 193.877 254.64V248.248C193.944 247.218 194.264 246.214 194.817 245.306C195.369 244.397 196.14 243.608 197.075 242.992C195.48 244.004 195.603 245.489 197.436 246.428L230.39 263.274C231.487 263.783 232.712 264.036 233.949 264.009Z" fill="black"/>
<path d="M237.509 263.259L316.256 222.957C318.221 221.953 318.221 220.322 316.256 219.317L283.31 202.471C282.207 201.976 280.988 201.717 279.751 201.717C278.514 201.717 277.295 201.976 276.192 202.471L197.436 242.773C195.472 243.778 195.472 245.409 197.436 246.413L230.39 263.259C231.493 263.755 232.712 264.013 233.949 264.013C235.186 264.013 236.406 263.755 237.509 263.259Z" fill="#455A64"/>
<path d="M267.816 202.857L240.509 203.52L240.205 177.239C240.156 175.652 240.46 174.072 241.101 172.589C241.741 171.106 242.706 169.749 243.938 168.596C245.171 167.444 246.648 166.517 248.286 165.871C249.923 165.224 251.688 164.869 253.48 164.826C255.273 164.783 257.057 165.052 258.732 165.62C260.407 166.187 261.939 167.041 263.242 168.133C264.544 169.224 265.59 170.533 266.322 171.983C267.053 173.433 267.454 174.996 267.503 176.584L267.816 202.857Z" fill="black"/>
<path d="M260.237 190.467C262.177 190.27 264.955 189.127 267.816 193.852C270.676 198.577 276.192 208.703 276.192 208.703L281.675 203.185L285.883 206.199C285.883 206.199 279.57 214.68 277.754 216.282C276.315 217.548 274.606 217.738 272.74 215.612C270.545 213.144 263.624 203.185 263.624 203.185L260.237 190.467Z" fill="#FFA8A7"/>
<path d="M299.627 205.056C299.71 204.963 299.762 204.852 299.777 204.734C299.792 204.617 299.77 204.498 299.712 204.391C299.655 204.284 299.565 204.193 299.453 204.13C299.34 204.066 299.21 204.031 299.076 204.029C298.981 204.029 298.886 204.047 298.799 204.081C298.711 204.115 298.632 204.164 298.567 204.226C298.567 204.16 298.567 204.095 298.567 204.029C298.567 203.778 298.511 203.53 298.402 203.298C298.293 203.066 298.134 202.855 297.933 202.678C297.732 202.501 297.494 202.36 297.232 202.265C296.969 202.17 296.688 202.121 296.405 202.122C296.033 202.12 295.667 202.205 295.344 202.369C295.405 202.243 295.43 202.104 295.416 201.967C295.402 201.83 295.35 201.698 295.265 201.582C295.179 201.467 295.063 201.372 294.927 201.307C294.79 201.241 294.637 201.206 294.481 201.205C294.311 201.204 294.143 201.245 293.996 201.321C294.005 201.222 294.005 201.122 293.996 201.023C293.976 200.548 293.781 200.092 293.441 199.724C293.101 199.356 292.635 199.096 292.113 198.984C291.592 198.872 291.043 198.914 290.551 199.103C290.058 199.292 289.649 199.619 289.385 200.033C289.333 199.884 289.229 199.754 289.087 199.662C288.946 199.57 288.775 199.521 288.6 199.521C288.425 199.521 288.254 199.57 288.112 199.662C287.971 199.754 287.867 199.884 287.815 200.033C287.595 199.719 287.266 199.477 286.878 199.345C286.489 199.212 286.062 199.194 285.662 199.296C285.261 199.397 284.909 199.611 284.658 199.906C284.407 200.2 284.272 200.559 284.272 200.928C284.264 201.013 284.264 201.098 284.272 201.183C284.168 201.106 284.042 201.058 283.908 201.043C283.774 201.028 283.638 201.047 283.517 201.099C283.395 201.15 283.292 201.231 283.22 201.332C283.149 201.434 283.112 201.551 283.113 201.671C282.864 201.54 282.581 201.469 282.291 201.467C281.88 201.468 281.484 201.601 281.175 201.84C280.865 202.08 280.663 202.41 280.606 202.77C280.487 202.732 280.362 202.712 280.236 202.712C280.097 202.711 279.958 202.734 279.829 202.781C279.7 202.828 279.583 202.897 279.484 202.985C279.385 203.072 279.307 203.176 279.254 203.29C279.201 203.405 279.175 203.527 279.176 203.651C279.177 203.765 279.199 203.878 279.241 203.986C278.682 204.158 278.212 204.503 277.916 204.957C277.621 205.412 277.52 205.945 277.631 206.46C277.743 206.975 278.06 207.437 278.525 207.762C278.989 208.087 279.571 208.253 280.162 208.23L289.081 213.552L298.624 208.106C299.028 208.106 299.421 207.989 299.743 207.773C300.065 207.558 300.299 207.255 300.409 206.911C300.52 206.567 300.501 206.201 300.355 205.868C300.21 205.534 299.945 205.252 299.602 205.063L299.627 205.056Z" fill="#F5F5F5"/>
<path d="M291.399 211.207L291.087 227.638L293.035 226.648L293.668 210.043L291.399 211.207Z" fill="#FAFAFA"/>
<path d="M293.668 210.043L293.035 226.648L294.966 225.658L295.945 208.885L293.668 210.043Z" fill="#FCB016"/>
<path d="M289.747 212.052C289.56 212.142 289.351 212.187 289.138 212.183V228.454C289.35 228.457 289.558 228.414 289.747 228.33L291.087 227.638L291.399 211.207L289.747 212.052Z" fill="#FCB016"/>
<path d="M296.89 224.675L298.197 224.006C298.376 223.903 298.528 223.767 298.643 223.607C298.758 223.448 298.833 223.268 298.863 223.081L300.507 206.548L298.222 207.72L296.89 224.675Z" fill="#FCB016"/>
<path d="M295.945 208.885L294.967 225.658L296.89 224.675L298.222 207.72L295.945 208.885Z" fill="#FAFAFA"/>
<path d="M286.878 211.207L287.19 227.638L285.25 226.648L284.617 210.043L286.878 211.207Z" fill="#FCB016"/>
<path d="M284.618 210.043L285.25 226.648L283.319 225.658L282.341 208.885L284.618 210.043Z" fill="#E0E0E0"/>
<path d="M288.522 212.052C288.706 212.141 288.912 212.186 289.122 212.183V228.454C288.914 228.456 288.708 228.413 288.522 228.33L287.174 227.638L286.878 211.207L288.522 212.052Z" fill="#E0E0E0"/>
<path d="M281.395 224.675L280.088 224.006C279.908 223.903 279.755 223.767 279.638 223.608C279.522 223.448 279.446 223.269 279.414 223.081L277.77 206.548L280.064 207.72L281.395 224.675Z" fill="#E0E0E0"/>
<path d="M282.341 208.885L283.319 225.658L281.395 224.675L280.064 207.72L282.341 208.885Z" fill="#FCB016"/>
<path opacity="0.1" d="M286.878 211.207L287.19 227.638L285.25 226.648L284.617 210.043L286.878 211.207Z" fill="black"/>
<path opacity="0.1" d="M282.341 208.885L283.319 225.658L281.395 224.675L280.064 207.72L282.341 208.885Z" fill="black"/>
<path d="M288.662 208.397C288.551 208.532 288.407 208.641 288.239 208.717C288.072 208.793 287.888 208.833 287.7 208.834C287.41 208.841 287.127 208.752 286.906 208.585C286.686 208.417 286.543 208.184 286.505 207.929C286.467 207.674 286.537 207.415 286.702 207.204C286.866 206.992 287.113 206.841 287.396 206.781C287.245 206.957 287.164 207.172 287.166 207.393C287.168 207.669 287.294 207.934 287.515 208.129C287.737 208.324 288.037 208.434 288.349 208.434C288.455 208.436 288.56 208.424 288.662 208.397Z" fill="#E0E0E0"/>
<path d="M290.043 208.47C290.056 208.578 290.039 208.686 289.995 208.787C289.951 208.888 289.88 208.978 289.789 209.049C289.697 209.121 289.588 209.172 289.469 209.198C289.351 209.225 289.227 209.226 289.108 209.201C288.99 209.176 288.879 209.127 288.786 209.057C288.693 208.987 288.621 208.898 288.575 208.798C288.529 208.698 288.51 208.589 288.521 208.482C288.532 208.374 288.572 208.27 288.637 208.179C288.653 208.32 288.719 208.452 288.826 208.557C288.963 208.691 289.154 208.771 289.357 208.78C289.56 208.79 289.759 208.728 289.911 208.608C289.964 208.57 290.009 208.523 290.043 208.47Z" fill="#E0E0E0"/>
<path d="M285.341 203.52C285.475 203.705 285.541 203.922 285.528 204.142C285.515 204.361 285.424 204.572 285.269 204.743C285.113 204.915 284.901 205.039 284.662 205.097C284.422 205.156 284.168 205.147 283.935 205.07C283.693 204.99 283.487 204.84 283.351 204.645C283.214 204.451 283.153 204.221 283.179 203.993C283.315 204.177 283.514 204.317 283.746 204.393C283.891 204.442 284.045 204.466 284.2 204.462C284.355 204.458 284.507 204.427 284.648 204.371C284.79 204.315 284.917 204.235 285.023 204.135C285.129 204.035 285.212 203.917 285.267 203.789C285.303 203.702 285.328 203.612 285.341 203.52Z" fill="#E0E0E0"/>
<path d="M283.508 204.51C283.565 204.605 283.594 204.711 283.594 204.819C283.594 204.927 283.565 205.033 283.508 205.129C283.463 205.209 283.401 205.28 283.325 205.339C283.249 205.397 283.161 205.442 283.066 205.471C282.97 205.499 282.869 205.51 282.769 205.504C282.668 205.498 282.57 205.474 282.48 205.434C282.331 205.37 282.21 205.264 282.136 205.132C282.061 205 282.038 204.851 282.069 204.706C282.133 204.818 282.231 204.912 282.351 204.978C282.471 205.043 282.61 205.078 282.751 205.078C282.893 205.078 283.031 205.043 283.152 204.978C283.272 204.912 283.37 204.818 283.434 204.706C283.472 204.646 283.497 204.579 283.508 204.51Z" fill="#E0E0E0"/>
<path d="M295.731 206.024C295.742 206.191 295.708 206.359 295.631 206.512C295.554 206.665 295.437 206.8 295.289 206.905C295.142 207.01 294.968 207.081 294.782 207.114C294.596 207.147 294.404 207.14 294.222 207.094C294.041 207.048 293.874 206.963 293.736 206.848C293.599 206.733 293.494 206.59 293.432 206.432C293.369 206.274 293.351 206.104 293.378 205.938C293.404 205.772 293.476 205.615 293.586 205.478C293.604 205.699 293.699 205.91 293.857 206.082C294.055 206.292 294.339 206.424 294.647 206.45C294.954 206.476 295.261 206.394 295.501 206.221C295.588 206.165 295.666 206.099 295.731 206.024Z" fill="#E0E0E0"/>
<path d="M297.005 205.544C297.018 205.651 297.002 205.76 296.957 205.86C296.913 205.961 296.842 206.051 296.751 206.123C296.66 206.194 296.55 206.245 296.432 206.272C296.313 206.298 296.19 206.299 296.071 206.274C295.952 206.25 295.842 206.2 295.749 206.13C295.656 206.06 295.583 205.971 295.537 205.871C295.491 205.771 295.473 205.663 295.483 205.555C295.494 205.447 295.534 205.344 295.599 205.252C295.614 205.377 295.668 205.495 295.754 205.594C295.84 205.693 295.956 205.769 296.088 205.813C296.22 205.858 296.363 205.869 296.502 205.846C296.64 205.823 296.769 205.766 296.874 205.682C296.926 205.643 296.971 205.596 297.005 205.544Z" fill="#E0E0E0"/>
<path d="M293.676 204.393C293.824 204.455 293.945 204.558 294.023 204.686C294.1 204.814 294.129 204.96 294.105 205.104C294.081 205.248 294.005 205.38 293.89 205.483C293.774 205.586 293.624 205.653 293.462 205.675C293.296 205.699 293.126 205.675 292.977 205.605C292.829 205.535 292.71 205.424 292.64 205.289C292.785 205.353 292.949 205.373 293.109 205.347C293.208 205.333 293.303 205.301 293.388 205.254C293.473 205.208 293.547 205.146 293.605 205.073C293.664 205.001 293.705 204.919 293.727 204.832C293.749 204.745 293.751 204.656 293.733 204.568C293.728 204.507 293.708 204.447 293.676 204.393Z" fill="#E0E0E0"/>
<path d="M281.395 201.707C281.395 202.224 282.16 202.937 282.604 203.33C283.048 203.724 284.445 204.364 284.823 204.823C285.201 205.281 285.744 205.252 285.9 204.51C286.056 203.767 284.65 202.457 284.618 202.064C284.585 201.671 286.426 201.707 287.593 202.1C288.76 202.493 290.01 204.342 290.462 205.252C290.914 206.162 293.75 206.09 293.668 203.476C293.586 200.862 292.122 199.625 290.503 198.955C288.71 198.284 286.726 198.118 284.823 198.482C283.006 198.846 281.017 200.156 280.064 202.719C280.254 202.686 280.45 202.701 280.631 202.763C280.664 202.548 280.75 202.342 280.882 202.16C281.014 201.978 281.189 201.823 281.395 201.707Z" fill="#FFA8A7"/>
<path d="M227.834 198.103C230.357 197.288 244.339 191.981 249.074 192.061L249.584 202.362L234.541 208.412L227.834 198.103Z" fill="#E0E0E0"/>
<path d="M285.957 256.868C285.481 257.312 284.938 257.821 284.996 258.382C285.175 259.567 285.77 260.672 286.697 261.541C288.012 262.801 288.884 265.181 289.163 266.848C289.443 268.516 289.574 272.672 291.917 274.289C294.26 275.905 299.94 276.749 299.94 273.713C299.94 270.678 293.158 258.979 293.158 258.979L285.957 256.868Z" fill="black"/>
<path d="M289.106 258.819C290.053 260.949 290.82 263.139 291.399 265.371C291.974 267.809 292.788 269.527 294.194 270.183C295.6 270.838 297.696 270.721 296.907 269.062C296.117 267.402 293.117 258.993 293.117 258.993L289.106 258.819Z" fill="#F28F8F"/>
<path d="M270.956 217.286C270.956 217.286 282.119 221.807 287.544 224.391C292.969 226.976 298.139 229.487 299.216 231.577C300.359 233.761 300.038 239.017 299.471 244.055C298.904 249.092 297.63 258.142 297.63 258.142L281.732 237.03L265.761 227.682L270.956 217.286Z" fill="#FCB016"/>
<path opacity="0.1" d="M291.58 239.512C290.01 236.28 286.59 234.132 283.36 232.378C280.812 230.98 274.458 227.704 271.967 226.423C272.465 225.318 272.743 224.146 272.789 222.957C272.789 222.957 272.008 224.544 271.087 225.978L270.422 226.947L286.779 237.758L298.016 255.528C298.016 255.528 293.15 242.708 291.58 239.512Z" fill="black"/>
<path d="M298.986 273.939C298.526 274.208 298.591 275.213 298.632 275.956C298.674 276.698 298.082 277.659 299.29 278.795C300.498 279.931 302.537 280.032 304.222 281.59C305.907 283.148 308.406 286.009 312.943 286.22C317.481 286.432 320.596 284.67 321.205 283.396C321.813 282.122 320.892 281.132 317.826 280.105C314.538 279.013 313.65 278.693 313.65 278.693L298.986 273.939Z" fill="black"/>
<path d="M302.274 265.283C302.274 265.283 305.332 270.175 307.05 272.381C308.957 274.668 311.25 276.681 313.848 278.351C314.423 278.737 315.681 279.428 316.149 279.741C316.262 279.796 316.358 279.873 316.431 279.967C316.504 280.06 316.551 280.167 316.568 280.28C316.586 280.392 316.574 280.507 316.532 280.614C316.491 280.722 316.422 280.819 316.33 280.899C315.574 281.874 311.604 282.799 309.006 281.721C306.409 280.644 303.532 278.205 301.912 277.244C301.09 276.771 300.334 276.312 299.767 275.97C299.499 275.812 299.281 275.594 299.137 275.339C298.993 275.084 298.927 274.799 298.945 274.514C298.945 274.347 298.945 274.158 298.945 273.932C298.945 272.731 296.175 268.326 296.175 268.326L302.274 265.283Z" fill="#FFA8A7"/>
<path d="M246.255 222.87C246.304 226.888 246.526 229.131 248.91 232.8C251.294 236.469 257.13 238.784 263.944 240.808C269.616 242.497 277.918 244.906 279.611 245.22C281.305 245.533 281.609 246.319 281.995 248.918C282.382 251.517 284.346 255.513 288.777 260.165C291.996 263.617 295 267.221 297.778 270.962C297.778 270.962 302.405 270.962 304.173 268.232C304.173 268.232 291.292 241.296 289.229 238.209C287.166 235.122 270.438 226.91 270.438 226.91C270.438 226.91 270.717 221.341 270.939 217.286L246.255 222.87Z" fill="#FCB016"/>
<path d="M249.066 192.061L245.038 193.852C245.038 193.852 247.817 196.32 247.052 202.384C246.518 206.679 245.408 207.05 242.942 208.259C246.23 214.855 246.23 224.566 246.23 224.566C246.23 224.566 252.025 227.318 262.555 224.668C271.811 222.346 270.89 217.286 270.89 217.286L266.912 214.571L266.016 208.15C266.016 208.15 269.148 205.362 267.791 200.397C266.435 195.432 260.171 190.467 260.171 190.467H257.705L249.066 192.061Z" fill="#FAFAFA"/>
<path d="M269.468 221.159C264.758 222.717 257.96 222.47 254.754 221.159C250.25 219.317 248.367 214.258 248.737 211.033C249.345 205.769 248.844 202.209 247.422 198.948H247.11C247.227 200.089 247.211 201.238 247.06 202.377C246.526 206.672 245.416 207.043 242.95 208.252C246.033 214.687 246.238 224.559 246.238 224.559C246.238 224.559 252.033 227.311 262.563 224.661C265.555 223.933 267.964 222.746 269.41 221.152L269.468 221.159Z" fill="#F0F0F0"/>
<path d="M262.062 170.039C263.525 170.767 265.407 173.926 265.432 180.66C265.432 186.375 263.418 187.831 262.382 188.261C261.347 188.69 259.316 188.494 257.335 188.261L257.376 190.627C257.376 190.627 260.919 194.063 260.796 195.635C260.673 197.208 256.259 198.016 253.669 196.56C251.796 195.353 250.165 193.877 248.844 192.192L248.647 184.279C248.647 184.279 247.521 185.305 245.515 183.835C243.871 182.619 243.246 180.515 244.471 179.35C244.79 179.072 245.178 178.865 245.605 178.747C246.032 178.628 246.485 178.601 246.925 178.668C247.366 178.735 247.783 178.893 248.141 179.131C248.499 179.369 248.788 179.678 248.984 180.034C251.563 179.879 254.058 179.156 256.242 177.93C257.844 177.112 259.205 175.972 260.216 174.6C261.228 173.229 261.86 171.667 262.062 170.039Z" fill="#FFA8A7"/>
<path d="M258.198 179.401C258.21 179.497 258.199 179.593 258.168 179.686C258.137 179.778 258.086 179.864 258.017 179.938C257.948 180.013 257.863 180.074 257.768 180.119C257.672 180.165 257.567 180.193 257.458 180.202C257.349 180.209 257.239 180.196 257.136 180.165C257.032 180.134 256.936 180.085 256.854 180.02C256.772 179.956 256.706 179.877 256.658 179.79C256.611 179.702 256.584 179.607 256.579 179.51C256.571 179.415 256.584 179.319 256.618 179.227C256.652 179.136 256.706 179.052 256.776 178.979C256.919 178.833 257.121 178.742 257.339 178.728C257.557 178.713 257.773 178.776 257.939 178.902C258.104 179.029 258.207 179.208 258.223 179.401H258.198Z" fill="black"/>
<path d="M258.56 184.235L260.459 184.723C260.428 184.835 260.373 184.94 260.295 185.032C260.218 185.125 260.12 185.202 260.009 185.261C259.897 185.319 259.773 185.357 259.644 185.372C259.515 185.387 259.384 185.379 259.259 185.349C259.003 185.278 258.788 185.123 258.658 184.915C258.528 184.708 258.493 184.465 258.56 184.235Z" fill="#F28F8F"/>
<path d="M264.774 177.035L263.13 176.074C263.194 175.974 263.281 175.886 263.385 175.817C263.489 175.748 263.608 175.698 263.735 175.672C263.861 175.645 263.992 175.642 264.12 175.662C264.248 175.683 264.37 175.726 264.478 175.79C264.697 175.926 264.849 176.13 264.904 176.361C264.959 176.592 264.912 176.833 264.774 177.035Z" fill="black"/>
<path d="M264.446 178.731C264.453 178.875 264.413 179.017 264.33 179.14C264.247 179.263 264.124 179.362 263.978 179.424C263.831 179.485 263.668 179.507 263.507 179.487C263.347 179.466 263.197 179.404 263.076 179.308C262.955 179.213 262.869 179.087 262.829 178.948C262.788 178.809 262.795 178.663 262.848 178.527C262.901 178.392 262.999 178.273 263.128 178.186C263.257 178.099 263.412 178.048 263.574 178.04C263.683 178.034 263.792 178.047 263.895 178.079C263.997 178.11 264.092 178.16 264.173 178.224C264.254 178.289 264.32 178.366 264.367 178.454C264.414 178.541 264.44 178.635 264.446 178.731Z" fill="black"/>
<path d="M260.78 178.054L260.878 182.728L263.418 181.964L260.78 178.054Z" fill="#F28F8F"/>
<path d="M257.335 188.254C255.264 188.064 250.965 187.081 250.25 185.604C250.542 186.352 251.084 187.004 251.803 187.475C253.11 188.406 257.376 189.396 257.376 189.396L257.335 188.254Z" fill="#F28F8F"/>
<path d="M257.376 190.62V189.396C257.376 189.396 260.73 188.865 262.498 189.396C264.113 189.91 265.611 190.677 266.92 191.661C267.892 192.71 268.452 194.01 268.515 195.366C268.473 197.026 266.673 197.601 264.248 196.254C262.941 195.526 262.44 194.128 261.577 193.408C259.964 192.761 258.53 191.809 257.376 190.62Z" fill="#B16668"/>
<path d="M245.047 193.852C241.389 195.344 239.177 196.298 237.986 201.132C236.794 205.966 231.993 229.051 231.993 229.051L237.681 230.66C237.681 230.66 241.865 219.208 243.049 215.372C244.233 211.535 246.551 205.776 247.06 202.377C247.57 198.977 247.981 196.633 245.047 193.852Z" fill="#FFA8A7"/>
<path d="M243.698 291.477H249.896V282.085H243.698V291.477Z" fill="#B16668"/>
<path d="M260.418 283.789L266.607 283.978L266.92 274.041L260.73 273.852L260.418 283.789Z" fill="#B16668"/>
<path d="M249.888 289.016V288.04C250.537 288.295 253.464 293.777 256.135 295.939C258.256 297.65 261.996 300.002 261.889 301.625C261.766 303.729 258.387 304.661 255.469 304.049C253.192 303.576 249.937 302.353 248.375 300.861C246.814 299.368 246.312 297.41 245.49 296.434C244.668 295.459 242.802 294.367 242.358 293.231C242.12 292.612 242.408 291.251 242.745 290.108C243.082 288.965 243.394 287.888 243.805 287.99V288.637C244.761 289.307 245.948 289.664 247.167 289.649C248.178 289.671 249.888 289.678 249.888 289.016Z" fill="black"/>
<path d="M266.673 282.289C266.994 282.289 267.257 282.697 267.964 283.381C269.221 284.316 270.621 285.088 272.123 285.674C274.441 286.701 280.516 288.084 282.554 288.892C283.828 289.402 283.508 291.156 281.732 292.139C280.384 292.867 276.093 293.595 272.279 292.831C270.191 292.416 267.027 291.142 265.481 290.923C263.78 290.69 260.656 290.399 259.39 289.628C258.124 288.856 258.634 287.203 258.988 285.784C259.382 284.24 259.941 281.867 260.516 281.976V282.464C261.265 283.461 265.054 283.869 266.69 283.134L266.673 282.289Z" fill="black"/>
<path d="M212.479 238.464C214.172 245.365 219.449 249.384 228.976 252.747C236.547 255.397 243.707 257.646 243.707 257.646C242.792 261.137 242.318 264.707 242.293 268.29C242.235 273.641 243.386 285.492 243.386 285.492C243.386 285.492 247.496 287.029 250.324 285.434C250.324 285.434 251.853 276.247 253.02 269.549C254.836 259.102 256.119 253.839 255.584 251.873C255.256 250.643 250.34 247.578 246.016 244.957L258.881 250.184C258.625 252.483 258.515 254.792 258.552 257.1C258.766 264.38 260.418 278.671 260.418 278.671C260.418 278.671 264.922 280.455 267.158 278.911C267.158 278.911 272.361 244.877 271.433 242.409C270.348 239.497 266.821 238.384 249.502 231.853C245.507 230.339 239.531 228.592 239.531 228.592L212.479 238.464Z" fill="#FCB016"/>
<path opacity="0.1" d="M212.479 238.464C214.172 245.365 219.449 249.384 228.976 252.747C236.547 255.397 243.707 257.646 243.707 257.646C242.792 261.137 242.318 264.707 242.293 268.29C242.235 273.641 243.386 285.492 243.386 285.492C243.386 285.492 247.496 287.029 250.324 285.434C250.324 285.434 251.853 276.247 253.02 269.549C254.836 259.102 256.119 253.839 255.584 251.873C255.256 250.643 250.34 247.578 246.016 244.957L258.881 250.184C258.625 252.483 258.515 254.792 258.552 257.1C258.766 264.38 260.418 278.671 260.418 278.671C260.418 278.671 264.922 280.455 267.158 278.911C267.158 278.911 272.361 244.877 271.433 242.409C270.348 239.497 266.821 238.384 249.502 231.853C245.507 230.339 239.531 228.592 239.531 228.592L212.479 238.464Z" fill="black"/>
<path d="M213.029 200.557C211.183 203.221 210.184 206.277 210.136 209.402L208.993 220.118C209.544 228.803 210.062 232.319 211.764 238.536C216.161 242.773 234.648 237.867 239.531 228.621C239.531 228.621 237.18 216.507 236.728 208.237C236.407 202.369 234.179 198.213 227.834 198.089L219.696 199.079L213.029 200.557Z" fill="#F5F5F5"/>
<path d="M236.862 187.621C240.342 184.539 240.342 179.542 236.862 176.46C233.382 173.379 227.741 173.379 224.261 176.46C220.781 179.542 220.781 184.539 224.261 187.621C227.741 190.703 233.382 190.703 236.862 187.621Z" fill="black"/>
<path d="M215.989 186.754C215.989 186.754 217.353 192.432 217.904 193.371C218.262 193.939 218.849 194.366 219.548 194.565L219.458 190.569L215.989 186.754Z" fill="black"/>
<path d="M217.707 178.608C217.228 178.558 216.743 178.605 216.289 178.747C215.835 178.888 215.423 179.119 215.084 179.423C213.958 180.442 214.591 183.631 215.989 186.754L218.561 187.009L217.707 178.608Z" fill="black"/>
<path d="M219.334 187.016C218.816 187.285 218.085 186.412 217.444 185.822C216.802 185.232 214.731 184.424 213.695 186.361C212.66 188.297 214.608 190.933 216.243 191.384C219.063 192.17 219.49 190.569 219.49 190.569L219.704 199.574C222.17 201.976 230.439 201.401 228.878 199.334V196.596C230.133 196.774 231.406 196.832 232.675 196.771C234.747 196.487 236.054 195.038 236.678 193.051C237.689 189.855 238.076 187.278 237.221 181.003C236.276 174.123 227.242 174.05 222.359 176.773C217.476 179.496 219.334 187.016 219.334 187.016Z" fill="#B16668"/>
<path d="M219.334 187.78C219.079 187.78 218.093 186.324 217.444 185.822C216.556 185.094 217.707 178.608 217.707 178.608C217.47 178.049 217.421 177.441 217.567 176.858C217.713 176.275 218.047 175.742 218.529 175.324C219.754 174.13 221.817 173.999 225.269 173.519C227.094 173.264 229.864 172.791 231.681 172.507C233.859 172.15 235.659 171.779 237.196 172.951C237.8 173.415 238.226 174.032 238.417 174.719C238.609 175.406 238.555 176.129 238.265 176.788C237.819 177.604 237.036 178.237 236.078 178.557C236.078 178.557 235.133 179.285 231.829 179.656C228.78 179.86 225.717 179.809 222.68 179.503C221.726 179.386 221.521 180.231 221.036 182.459C220.584 184.424 220.206 187.766 219.334 187.78Z" fill="black"/>
<path d="M217.707 179.088L214.591 177.632C214.688 177.444 214.827 177.275 214.999 177.135C215.172 176.996 215.374 176.889 215.595 176.821C215.815 176.753 216.049 176.725 216.282 176.739C216.515 176.754 216.743 176.81 216.95 176.904C217.371 177.11 217.685 177.453 217.826 177.861C217.967 178.268 217.924 178.708 217.707 179.088Z" fill="black"/>
<path d="M228.87 196.596C228.87 196.596 224.242 195.766 222.622 195.009C221.673 194.569 220.894 193.887 220.386 193.051C220.631 193.887 221.061 194.672 221.652 195.359C222.836 196.698 228.87 197.688 228.87 197.688V196.596Z" fill="#9A4A4D"/>
<path d="M227.752 185.989C227.743 186.152 227.68 186.309 227.571 186.44C227.462 186.571 227.311 186.671 227.138 186.726C226.965 186.781 226.777 186.79 226.599 186.75C226.42 186.711 226.259 186.625 226.136 186.505C226.012 186.384 225.932 186.233 225.905 186.072C225.878 185.911 225.906 185.746 225.985 185.599C226.063 185.452 226.19 185.329 226.348 185.245C226.506 185.162 226.688 185.122 226.872 185.13C227.115 185.147 227.341 185.245 227.505 185.405C227.668 185.565 227.756 185.774 227.752 185.989Z" fill="black"/>
<path d="M226.264 182.59L224.283 183.558C224.142 183.317 224.111 183.038 224.197 182.777C224.283 182.517 224.478 182.296 224.743 182.16C224.874 182.097 225.018 182.057 225.166 182.044C225.315 182.032 225.465 182.046 225.607 182.086C225.749 182.126 225.881 182.192 225.994 182.278C226.107 182.365 226.198 182.471 226.264 182.59Z" fill="black"/>
<path d="M228.45 191.661L230.563 192.389C230.517 192.514 230.442 192.631 230.344 192.73C230.246 192.83 230.126 192.911 229.992 192.969C229.858 193.027 229.712 193.06 229.563 193.067C229.413 193.073 229.264 193.053 229.124 193.007C228.98 192.958 228.848 192.884 228.736 192.79C228.624 192.696 228.535 192.583 228.472 192.458C228.409 192.333 228.375 192.198 228.371 192.061C228.368 191.924 228.394 191.788 228.45 191.661Z" fill="#9A4A4D"/>
<path d="M236.259 183.31L234.451 182.08C234.536 181.972 234.645 181.881 234.77 181.811C234.896 181.741 235.037 181.695 235.183 181.675C235.33 181.654 235.48 181.66 235.624 181.692C235.768 181.725 235.903 181.782 236.021 181.862C236.263 182.03 236.422 182.274 236.467 182.544C236.511 182.813 236.437 183.088 236.259 183.31Z" fill="black"/>
<path d="M235.47 185.756C235.462 185.917 235.401 186.073 235.294 186.203C235.187 186.334 235.039 186.433 234.869 186.49C234.699 186.547 234.514 186.558 234.336 186.522C234.159 186.486 233.997 186.405 233.871 186.289C233.745 186.173 233.661 186.026 233.628 185.868C233.596 185.709 233.616 185.546 233.688 185.397C233.759 185.249 233.878 185.123 234.03 185.034C234.181 184.945 234.359 184.898 234.541 184.897C234.792 184.905 235.029 184.999 235.203 185.16C235.377 185.32 235.472 185.534 235.47 185.756Z" fill="black"/>
<path d="M230.883 185.094L230.99 190.074L234.319 189.426L230.883 185.094Z" fill="#9A4A4D"/>
<path opacity="0.15" d="M246.016 244.957L238.577 241.427C238.577 241.427 241.61 239.49 242.013 236.971C242.013 236.971 242.194 240.065 240.879 241.427L257.015 249.435L246.016 244.957Z" fill="black"/>
<path d="M221.414 290.712V260.435C221.345 259.341 220.987 258.277 220.369 257.329C219.751 256.381 218.889 255.574 217.855 254.975L181.341 236.309L178.547 217.716C178.307 216.614 177.82 215.566 177.114 214.634C176.408 213.702 175.497 212.906 174.437 212.292L171.543 210.836C169.579 209.839 167.984 210.654 167.984 212.656V263.427C168.051 264.521 168.409 265.585 169.027 266.533C169.645 267.482 170.507 268.288 171.543 268.887L217.83 292.532C219.811 293.537 221.414 292.714 221.414 290.712Z" fill="black"/>
<path d="M231.426 255.31V285.594C231.43 285.662 231.43 285.73 231.426 285.798C231.321 286.85 230.95 287.867 230.341 288.774C229.732 289.681 228.9 290.456 227.908 291.04L225.014 292.496C224.929 292.546 224.838 292.587 224.743 292.62C224.695 292.644 224.646 292.666 224.595 292.685H224.554C224.46 292.722 224.364 292.754 224.266 292.78C222.583 293.325 220.745 293.371 219.03 292.911C218.82 292.855 218.614 292.787 218.414 292.707C220.123 293.333 221.447 292.481 221.455 290.669V260.435C221.386 259.341 221.028 258.277 220.41 257.329C219.792 256.381 218.931 255.574 217.896 254.975L211.435 251.67L181.383 236.309L187.843 233.004C188.948 232.512 190.167 232.256 191.403 232.256C192.639 232.256 193.858 232.512 194.962 233.004L221.455 246.552L227.908 249.85C228.935 250.453 229.789 251.261 230.4 252.209C231.011 253.157 231.362 254.219 231.426 255.31Z" fill="#455A64"/>
<path d="M221.414 260.435V290.712C221.414 292.525 220.082 293.377 218.373 292.751C218.573 292.83 218.779 292.899 218.989 292.954C220.704 293.415 222.542 293.369 224.225 292.823C224.323 292.797 224.419 292.766 224.513 292.729H224.554C224.605 292.71 224.654 292.688 224.702 292.663C224.797 292.631 224.888 292.589 224.973 292.54L227.867 291.084C228.859 290.499 229.691 289.725 230.3 288.818C230.909 287.91 231.28 286.893 231.385 285.842C231.389 285.774 231.389 285.706 231.385 285.638V255.31C231.342 254.214 230.983 253.146 230.341 252.208L220.329 257.304C220.986 258.249 221.359 259.326 221.414 260.435Z" fill="#37474F"/>
<path d="M210.35 203.185C207.76 204 200.305 218 198.694 220.737C197.083 223.474 192.825 231.926 193.655 235.333C194.485 238.74 210.851 245.933 212.479 247.367C214.427 249.1 214.945 249.937 217.863 250.206C220.247 250.432 220.937 252.085 223.222 252.958C225.507 253.832 229.486 252.31 227.719 249.427C225.639 246.02 223.929 245.27 222.03 244.579C219.392 243.618 217.797 243.538 215.989 242.548C214.18 241.558 203.601 232.669 203.601 232.669L208.993 223.358C208.993 223.358 212.281 216.427 212.553 211.12C212.824 205.813 210.35 203.185 210.35 203.185Z" fill="#B16668"/>
<path d="M213.03 200.557C208.098 202.151 205.549 206.534 202.755 211.477C199.96 216.42 197.428 221.749 197.428 221.749C200.186 224.264 203.72 226.003 207.588 226.75L212.898 217.81C212.898 217.81 218.562 208.019 213.03 200.557Z" fill="#E0E0E0"/>
</svg>
