<svg width="329" height="274" viewBox="0 0 329 274" fill="none" xmlns="http://www.w3.org/2000/svg">
<path d="M310.872 198.886C310.872 198.886 326.912 127.503 310.44 89.5377C293.969 51.5723 256.254 28.7864 218.539 28.7864C180.824 28.7864 180.824 42.4864 152.212 55.0904C123.601 67.6944 103.239 38.4093 70.2778 44.4812C37.3163 50.553 11.7552 66.7574 10.4553 99.1551C9.15542 131.553 23.4634 148.766 25.1951 168.006C26.9267 187.246 11.7552 194.858 15.6548 222.17C19.5544 249.482 29.5311 252.546 29.5311 252.546H317.808C317.808 252.546 327.78 237.865 318.244 222.17C308.709 206.475 310.872 198.886 310.872 198.886Z" fill="#FCB016"/>
<path opacity="0.7" d="M310.872 198.886C310.872 198.886 326.912 127.503 310.44 89.5377C293.969 51.5723 256.254 28.7864 218.539 28.7864C180.824 28.7864 180.824 42.4864 152.212 55.0904C123.601 67.6944 103.239 38.4093 70.2778 44.4812C37.3163 50.553 11.7552 66.7574 10.4553 99.1551C9.15542 131.553 23.4634 148.766 25.1951 168.006C26.9267 187.246 11.7552 194.858 15.6548 222.17C19.5544 249.482 29.5311 252.546 29.5311 252.546H317.808C317.808 252.546 327.78 237.865 318.244 222.17C308.709 206.475 310.872 198.886 310.872 198.886Z" fill="white"/>
<path d="M220.261 48.0322V42.4097" stroke="#263238" stroke-linecap="round" stroke-linejoin="round"/>
<path d="M220.261 252.179V52.9697" stroke="#263238" stroke-linecap="round" stroke-linejoin="round"/>
<path d="M246.836 50.964H225.719V90.42H246.836V50.964Z" stroke="#263238" stroke-linecap="round" stroke-linejoin="round"/>
<path d="M245.076 54.252H227.478V87.132H245.076V54.252Z" stroke="#263238" stroke-linecap="round" stroke-linejoin="round"/>
<path d="M240.092 63.568H232.467V77.816H240.092V63.568Z" stroke="#263238" stroke-linecap="round" stroke-linejoin="round"/>
<path d="M281.562 84.4468C281.562 84.4468 274.152 79.6408 273.584 90.5296C273.016 101.418 271.707 224.28 271.707 224.28" stroke="#263238" stroke-width="2" stroke-linecap="round" stroke-linejoin="round"/>
<path d="M269.764 91.516C269.764 91.516 275.804 159.282 273.049 223.348" stroke="#263238" stroke-width="2" stroke-linecap="round" stroke-linejoin="round"/>
<path d="M275.701 86.6388C275.701 86.6388 272.885 88.7541 271.252 86.3319C269.619 83.9098 272.345 79.46 269.961 77.5639C267.577 75.6678 263.467 78.5668 263.467 78.5668C263.467 78.5668 266.634 79.6628 266.531 81.6684C266.428 83.6741 264.907 84.4523 264.701 83.57C264.494 82.6877 262.988 78.2434 260.416 80.0902C259.675 80.6013 259.03 81.2831 258.521 82.0942C258.012 82.9053 257.649 83.8287 257.455 84.8085C257.455 84.8085 263.439 84.0632 263.8 86.6881C264.161 89.313 261.346 86.2333 258.877 86.0634C256.409 85.8935 254.156 86.3155 254.316 88.0636C254.372 89.607 254.294 91.153 254.081 92.6778C254.081 92.6778 256.174 90.4858 258.891 90.694C261.608 90.9022 261.505 92.886 259.037 92.7271C256.568 92.5682 254.447 95.3082 254.447 95.3082C254.447 95.3082 256.695 99.8018 259.558 102.027C262.42 104.252 263.453 103.451 263.781 101.736C264.11 100.021 263.345 95.6315 265.072 95.752C266.798 95.8726 262.209 103.364 264.419 103.808C266.63 104.252 268.399 103.501 268.981 101.807L269.562 100.109C269.562 100.109 268.793 95.7246 269.126 94.0039C269.459 92.2832 269.868 94.0532 270.262 96.1082C270.656 98.1632 270.9 103.095 271.67 102.86C272.439 102.624 274.832 99.0236 275.424 97.6152C276.015 96.2069 272.247 91.8996 272.289 91.0392C272.331 90.1789 275.222 91.8229 275.672 92.7216C275.999 93.3991 276.295 94.096 276.559 94.8095C276.559 94.8095 278.361 93.4833 278.319 89.4281C278.277 85.3729 275.701 86.6388 275.701 86.6388Z" fill="#FCB016"/>
<path opacity="0.3" d="M275.701 86.6388C275.701 86.6388 272.885 88.7541 271.252 86.3319C269.619 83.9098 272.345 79.46 269.961 77.5639C267.577 75.6678 263.467 78.5668 263.467 78.5668C263.467 78.5668 266.634 79.6628 266.531 81.6684C266.428 83.6741 264.907 84.4523 264.701 83.57C264.494 82.6877 262.988 78.2434 260.416 80.0902C259.675 80.6013 259.03 81.2831 258.521 82.0942C258.012 82.9053 257.649 83.8287 257.455 84.8085C257.455 84.8085 263.439 84.0632 263.8 86.6881C264.161 89.313 261.346 86.2333 258.877 86.0634C256.409 85.8935 254.156 86.3155 254.316 88.0636C254.372 89.607 254.294 91.153 254.081 92.6778C254.081 92.6778 256.174 90.4858 258.891 90.694C261.608 90.9022 261.505 92.886 259.037 92.7271C256.568 92.5682 254.447 95.3082 254.447 95.3082C254.447 95.3082 256.695 99.8018 259.558 102.027C262.42 104.252 263.453 103.451 263.781 101.736C264.11 100.021 263.345 95.6315 265.072 95.752C266.798 95.8726 262.209 103.364 264.419 103.808C266.63 104.252 268.399 103.501 268.981 101.807L269.562 100.109C269.562 100.109 268.793 95.7246 269.126 94.0039C269.459 92.2832 269.868 94.0532 270.262 96.1082C270.656 98.1632 270.9 103.095 271.67 102.86C272.439 102.624 274.832 99.0236 275.424 97.6152C276.015 96.2069 272.247 91.8996 272.289 91.0392C272.331 90.1789 275.222 91.8229 275.672 92.7216C275.999 93.3991 276.295 94.096 276.559 94.8095C276.559 94.8095 278.361 93.4833 278.319 89.4281C278.277 85.3729 275.701 86.6388 275.701 86.6388Z" fill="#263238"/>
<path d="M261.336 96.1411C263.185 93.4778 265.907 89.8665 268.188 88.1458" stroke="#263238" stroke-linecap="round" stroke-linejoin="round"/>
<path d="M259.196 99.3908C259.196 99.3908 259.666 98.6181 260.44 97.4673" stroke="#263238" stroke-linecap="round" stroke-linejoin="round"/>
<path d="M269.394 88.8089C269.394 88.8089 272.139 93.3354 272.646 97.9988" stroke="#263238" stroke-linecap="round" stroke-linejoin="round"/>
<path d="M266.287 91.516C266.287 91.516 267.057 90.968 266.756 96.7549" stroke="#263238" stroke-linecap="round" stroke-linejoin="round"/>
<path d="M268.291 86.1237C268.291 86.1237 269.858 84.4797 269.032 81.2574" stroke="#263238" stroke-linecap="round" stroke-linejoin="round"/>
<path d="M266.17 88.8746L265.053 86.4799" stroke="#263238" stroke-linecap="round" stroke-linejoin="round"/>
<path d="M263.814 91.3187C263.814 91.3187 260.257 88.1787 258.032 88.0307" stroke="#263238" stroke-linecap="round" stroke-linejoin="round"/>
<path d="M285.785 78.09C285.785 78.09 285.672 82.8466 282.5 83.0768C279.328 83.307 277.338 77.12 274.1 78.6106C270.862 80.1012 270.529 86.8854 270.529 86.8854C270.529 86.8854 273.622 83.9207 275.283 85.4168C276.944 86.9128 276.554 89.2144 275.663 88.8527C274.771 88.491 269.928 87.2087 269.759 91.4886C269.692 92.704 269.836 93.9227 270.184 95.0709C270.532 96.2192 271.075 97.2731 271.782 98.1687C271.782 98.1687 275.222 90.6666 277.723 92.0311C280.224 93.3956 275.658 94.5903 273.828 97.3632C271.998 100.136 270.829 103.057 272.42 104.06C274.011 105.063 276.217 107.474 276.217 107.474C276.217 107.474 275.799 103.572 277.807 100.503C279.816 97.4344 281.482 98.9469 279.652 101.72C277.822 104.493 278.713 108.844 278.713 108.844C278.713 108.844 284.105 109.277 287.958 107.446C291.81 105.616 291.834 103.868 290.595 102.306C289.356 100.744 285.062 98.6564 286.343 96.7165C287.625 94.7766 290.947 105.254 292.824 102.975C294.701 100.695 295.274 98.1084 294.232 96.2726L293.171 94.4368C293.171 94.4368 288.882 92.3435 287.639 90.7872C286.395 89.2308 288.188 89.9542 290.215 90.8968C292.242 91.8393 296.644 94.9136 296.954 93.8669C297.263 92.8202 295.827 87.554 295.006 85.9264C294.185 84.2988 287.934 85.751 287.226 85.1099C286.517 84.4687 289.896 82.211 290.98 82.2986C291.783 82.3793 292.581 82.5073 293.373 82.6822C293.373 82.6822 293.467 79.6792 289.962 76.9611C286.456 74.243 285.785 78.09 285.785 78.09Z" fill="#FCB016"/>
<path opacity="0.2" d="M285.785 78.09C285.785 78.09 285.672 82.8466 282.5 83.0768C279.328 83.307 277.338 77.12 274.1 78.6106C270.862 80.1012 270.529 86.8854 270.529 86.8854C270.529 86.8854 273.622 83.9207 275.283 85.4168C276.944 86.9128 276.554 89.2144 275.663 88.8527C274.771 88.491 269.928 87.2087 269.759 91.4886C269.692 92.704 269.836 93.9227 270.184 95.0709C270.532 96.2192 271.075 97.2731 271.782 98.1687C271.782 98.1687 275.222 90.6666 277.723 92.0311C280.224 93.3956 275.658 94.5903 273.828 97.3632C271.998 100.136 270.829 103.057 272.42 104.06C274.011 105.063 276.217 107.474 276.217 107.474C276.217 107.474 275.799 103.572 277.807 100.503C279.816 97.4344 281.482 98.9469 279.652 101.72C277.822 104.493 278.713 108.844 278.713 108.844C278.713 108.844 284.105 109.277 287.958 107.446C291.81 105.616 291.834 103.868 290.595 102.306C289.356 100.744 285.062 98.6564 286.343 96.7165C287.625 94.7766 290.947 105.254 292.824 102.975C294.701 100.695 295.274 98.1084 294.232 96.2726L293.171 94.4368C293.171 94.4368 288.882 92.3435 287.639 90.7872C286.395 89.2308 288.188 89.9542 290.215 90.8968C292.242 91.8393 296.644 94.9136 296.954 93.8669C297.263 92.8202 295.827 87.554 295.006 85.9264C294.185 84.2988 287.934 85.751 287.226 85.1099C286.517 84.4687 289.896 82.211 290.98 82.2986C291.783 82.3793 292.581 82.5073 293.373 82.6822C293.373 82.6822 293.467 79.6792 289.962 76.9611C286.456 74.243 285.785 78.09 285.785 78.09Z" fill="#263238"/>
<path d="M284.157 101.38C283.129 97.4015 281.89 91.7571 281.97 87.9156" stroke="#263238" stroke-linecap="round" stroke-linejoin="round"/>
<path d="M285.48 106.076C285.48 106.076 285.142 104.98 284.678 103.336" stroke="#263238" stroke-linecap="round" stroke-linejoin="round"/>
<path d="M283.359 86.9402C283.359 86.9402 289.112 86.8196 293.458 89.4062" stroke="#263238" stroke-linecap="round" stroke-linejoin="round"/>
<path d="M283.537 92.4038C283.537 92.4038 283.612 91.1434 288.357 95.4123" stroke="#263238" stroke-linecap="round" stroke-linejoin="round"/>
<path d="M280.309 86.4032C280.309 86.4032 279.98 83.4604 276.639 82.2164" stroke="#263238" stroke-linecap="round" stroke-linejoin="round"/>
<path d="M281.219 90.7543L278.403 90.431" stroke="#263238" stroke-linecap="round" stroke-linejoin="round"/>
<path d="M281.707 95.1712C281.707 95.1712 276.592 97.1933 274.945 99.6867" stroke="#263238" stroke-linecap="round" stroke-linejoin="round"/>
<path d="M251.665 109.748C251.665 109.748 267.85 174.313 267.577 222.68" stroke="#263238" stroke-width="2" stroke-linecap="round" stroke-linejoin="round"/>
<path d="M271.618 106.449C271.618 106.449 271.106 111.929 267.418 111.841C263.729 111.754 261.96 104.399 258.098 105.764C254.236 107.129 253.312 114.916 253.312 114.916C253.312 114.916 257.117 111.836 258.915 113.748C260.712 115.661 260.078 118.269 259.074 117.754C258.07 117.239 252.589 115.239 252.035 120.144C251.86 121.539 251.93 122.962 252.238 124.326C252.547 125.69 253.09 126.966 253.832 128.079C253.832 128.079 258.408 119.793 261.186 121.651C263.964 123.508 258.591 124.391 256.259 127.372C253.926 130.353 252.336 133.608 254.109 134.945C255.883 136.282 258.215 139.329 258.215 139.329C258.215 139.329 258.028 134.748 260.595 131.454C263.162 128.161 264.959 130.068 262.627 133.065C260.294 136.063 260.989 141.181 260.989 141.181C260.989 141.181 267.174 142.277 271.782 140.589C276.39 138.902 276.54 136.885 275.236 134.95C273.931 133.016 269.135 130.123 270.783 128.024C272.43 125.925 275.372 138.381 277.732 135.959C280.093 133.537 280.956 130.621 279.882 128.385L278.807 126.15C278.807 126.15 274.025 123.256 272.707 121.322C271.388 119.387 273.406 120.423 275.668 121.733C277.929 123.042 282.763 127.076 283.204 125.908C283.645 124.741 282.416 118.494 281.599 116.532C280.783 114.57 273.457 115.546 272.683 114.729C271.909 113.913 275.996 111.677 277.23 111.896C278.151 112.078 279.062 112.315 279.961 112.609C279.961 112.609 280.313 109.145 276.489 105.627C272.664 102.109 271.618 106.449 271.618 106.449Z" fill="#FCB016"/>
<path opacity="0.3" d="M271.618 106.449C271.618 106.449 271.106 111.929 267.418 111.841C263.729 111.754 261.96 104.399 258.098 105.764C254.236 107.129 253.312 114.916 253.312 114.916C253.312 114.916 257.117 111.836 258.915 113.748C260.712 115.661 260.078 118.269 259.074 117.754C258.07 117.239 252.589 115.239 252.035 120.144C251.86 121.539 251.93 122.962 252.238 124.326C252.547 125.69 253.09 126.966 253.832 128.079C253.832 128.079 258.408 119.793 261.186 121.651C263.964 123.508 258.591 124.391 256.259 127.372C253.926 130.353 252.336 133.608 254.109 134.945C255.883 136.282 258.215 139.329 258.215 139.329C258.215 139.329 258.028 134.748 260.595 131.454C263.162 128.161 264.959 130.068 262.627 133.065C260.294 136.063 260.989 141.181 260.989 141.181C260.989 141.181 267.174 142.277 271.782 140.589C276.39 138.902 276.54 136.885 275.236 134.95C273.931 133.016 269.135 130.123 270.783 128.024C272.43 125.925 275.372 138.381 277.732 135.959C280.093 133.537 280.956 130.621 279.882 128.385L278.807 126.15C278.807 126.15 274.025 123.256 272.707 121.322C271.388 119.387 273.406 120.423 275.668 121.733C277.929 123.042 282.763 127.076 283.204 125.908C283.645 124.741 282.416 118.494 281.599 116.532C280.783 114.57 273.457 115.546 272.683 114.729C271.909 113.913 275.996 111.677 277.23 111.896C278.151 112.078 279.062 112.315 279.961 112.609C279.961 112.609 280.313 109.145 276.489 105.627C272.664 102.109 271.618 106.449 271.618 106.449Z" fill="#263238"/>
<path d="M267.85 133.126C266.986 128.418 266.01 121.771 266.414 117.349" stroke="#263238" stroke-linecap="round" stroke-linejoin="round"/>
<path d="M268.995 138.71C268.995 138.71 268.694 137.427 268.291 135.422" stroke="#263238" stroke-linecap="round" stroke-linejoin="round"/>
<path d="M268.094 116.395C268.094 116.395 274.743 116.888 279.549 120.352" stroke="#263238" stroke-linecap="round" stroke-linejoin="round"/>
<path d="M267.859 122.714C267.859 122.714 268.042 121.272 273.176 126.725" stroke="#263238" stroke-linecap="round" stroke-linejoin="round"/>
<path d="M264.616 115.436C264.616 115.436 264.476 112.006 260.721 110.203" stroke="#263238" stroke-linecap="round" stroke-linejoin="round"/>
<path d="M265.316 120.56L262.096 119.88" stroke="#263238" stroke-linecap="round" stroke-linejoin="round"/>
<path d="M265.522 125.711C265.522 125.711 259.454 127.481 257.352 130.177" stroke="#263238" stroke-linecap="round" stroke-linejoin="round"/>
<path d="M271.618 153.44C271.618 153.44 271.106 158.92 267.418 158.832C263.729 158.745 261.96 151.39 258.084 152.75C254.208 154.109 253.298 161.901 253.298 161.901C253.298 161.901 257.103 158.827 258.901 160.734C260.698 162.641 260.064 165.26 259.06 164.74C258.056 164.219 252.575 162.23 252.021 167.135C251.845 168.529 251.914 169.952 252.223 171.315C252.532 172.678 253.075 173.953 253.818 175.064C253.818 175.064 258.394 166.784 261.172 168.636C263.95 170.488 258.577 171.376 256.245 174.357C253.912 177.338 252.321 180.593 254.095 181.931C255.869 183.268 258.201 186.315 258.201 186.315C258.201 186.315 258.014 181.739 260.581 178.44C263.148 175.141 264.945 177.053 262.613 180.051C260.28 183.048 260.975 188.172 260.975 188.172C260.975 188.172 267.16 189.268 271.768 187.575C276.376 185.882 276.526 183.87 275.222 181.936C273.917 180.002 269.121 177.114 270.768 175.015C272.416 172.916 275.358 185.372 277.718 182.95C280.079 180.528 280.942 177.607 279.868 175.371L278.793 173.135C278.793 173.135 274.011 170.247 272.692 168.313C271.374 166.378 273.392 167.414 275.654 168.724C277.915 170.033 282.749 174.067 283.19 172.894C283.631 171.721 282.402 165.485 281.585 163.518C280.769 161.55 273.443 162.537 272.669 161.715C271.895 160.893 275.982 158.668 277.216 158.887C278.136 159.068 279.048 159.304 279.947 159.594C279.947 159.594 280.299 156.136 276.475 152.618C272.65 149.1 271.618 153.44 271.618 153.44Z" fill="#FCB016"/>
<path opacity="0.3" d="M271.618 153.44C271.618 153.44 271.106 158.92 267.418 158.832C263.729 158.745 261.96 151.39 258.084 152.75C254.208 154.109 253.298 161.901 253.298 161.901C253.298 161.901 257.103 158.827 258.901 160.734C260.698 162.641 260.064 165.26 259.06 164.74C258.056 164.219 252.575 162.23 252.021 167.135C251.845 168.529 251.914 169.952 252.223 171.315C252.532 172.678 253.075 173.953 253.818 175.064C253.818 175.064 258.394 166.784 261.172 168.636C263.95 170.488 258.577 171.376 256.245 174.357C253.912 177.338 252.321 180.593 254.095 181.931C255.869 183.268 258.201 186.315 258.201 186.315C258.201 186.315 258.014 181.739 260.581 178.44C263.148 175.141 264.945 177.053 262.613 180.051C260.28 183.048 260.975 188.172 260.975 188.172C260.975 188.172 267.16 189.268 271.768 187.575C276.376 185.882 276.526 183.87 275.222 181.936C273.917 180.002 269.121 177.114 270.768 175.015C272.416 172.916 275.358 185.372 277.718 182.95C280.079 180.528 280.942 177.607 279.868 175.371L278.793 173.135C278.793 173.135 274.011 170.247 272.692 168.313C271.374 166.378 273.392 167.414 275.654 168.724C277.915 170.033 282.749 174.067 283.19 172.894C283.631 171.721 282.402 165.485 281.585 163.518C280.769 161.55 273.443 162.537 272.669 161.715C271.895 160.893 275.982 158.668 277.216 158.887C278.136 159.068 279.048 159.304 279.947 159.594C279.947 159.594 280.299 156.136 276.475 152.618C272.65 149.1 271.618 153.44 271.618 153.44Z" fill="#263238"/>
<path d="M267.85 180.111C266.986 175.409 266.01 168.762 266.414 164.334" stroke="#263238" stroke-linecap="round" stroke-linejoin="round"/>
<path d="M268.995 185.701C268.995 185.701 268.694 184.418 268.291 182.413" stroke="#263238" stroke-linecap="round" stroke-linejoin="round"/>
<path d="M268.094 163.381C268.094 163.381 274.743 163.874 279.549 167.337" stroke="#263238" stroke-linecap="round" stroke-linejoin="round"/>
<path d="M267.859 169.705C267.859 169.705 268.042 168.258 273.176 173.711" stroke="#263238" stroke-linecap="round" stroke-linejoin="round"/>
<path d="M264.616 162.427C264.616 162.427 264.476 158.991 260.721 157.194" stroke="#263238" stroke-linecap="round" stroke-linejoin="round"/>
<path d="M265.316 167.551L262.096 166.866" stroke="#263238" stroke-linecap="round" stroke-linejoin="round"/>
<path d="M265.522 172.702C265.522 172.702 259.454 174.467 257.352 177.163" stroke="#263238" stroke-linecap="round" stroke-linejoin="round"/>
<path d="M257.976 147.867C257.976 147.867 268.399 209.243 269.497 222.998L267.301 124.807" stroke="#263238" stroke-width="2" stroke-linecap="round" stroke-linejoin="round"/>
<path d="M283.209 141.143C269.497 138.26 269.497 222.998 269.497 222.998" stroke="#263238" stroke-width="2" stroke-linecap="round" stroke-linejoin="round"/>
<path d="M271.139 222.68C271.139 222.68 263.185 103.024 286.226 103.024" stroke="#263238" stroke-width="2" stroke-linecap="round" stroke-linejoin="round"/>
<path d="M277.986 139.192C276.109 136.731 272.129 136.731 269.788 143.028C267.446 149.325 269.553 148.223 269.553 148.223C269.553 148.223 274.002 146.579 276.813 145.483C279.624 144.387 283.382 141.647 283.603 143.291C283.823 144.935 281.726 146.579 279.154 147.127C276.583 147.675 269.769 149.867 270.492 151.511C271.214 153.155 272.838 158.087 272.838 158.087C274.839 156.1 276.951 154.27 279.159 152.607C282.205 150.415 284.077 151.237 282.444 153.703C280.811 156.169 276.123 158.898 277.057 162.181C277.99 165.463 283.626 169.568 283.626 169.568C283.626 169.568 284.33 162.729 285.973 160.542C287.615 158.356 287.615 160.816 287.146 164.641C286.911 166.274 286.754 167.92 286.677 169.573L293.246 172.313C293.246 172.313 295.593 168.209 296.761 166.833L297.934 165.463C297.934 165.463 292.772 160.268 292.547 156.986C292.322 153.703 296.057 156.986 297.24 157.534C298.422 158.082 300.285 161.918 300.285 161.918C300.285 161.918 301.454 155.627 301.693 153.44L301.928 151.248C301.928 151.248 297.01 149.056 295.138 149.056C293.265 149.056 292.322 150.7 292.322 148.508C292.322 146.316 294.199 144.951 296.301 145.22C298.404 145.489 301.933 146.864 301.933 146.864C301.933 146.864 303.34 145.494 302.871 141.384C302.402 137.274 301.229 137.285 298.418 138.381C295.607 139.477 293.725 141.932 291.627 141.932C289.53 141.932 290.689 138.923 292.097 138.096C293.505 137.269 297.015 135.635 297.728 135.356C298.441 135.077 293.974 131.251 291.627 130.703C289.281 130.155 286.254 132.084 286.465 134.808C286.883 140.567 279.858 141.658 277.986 139.192Z" fill="#FCB016"/>
<path d="M293.059 167.354C293.129 168.181 293.181 168.998 293.204 169.825" stroke="#263238" stroke-linecap="round" stroke-linejoin="round"/>
<path d="M288.357 147.724C290.411 153.142 291.891 158.832 292.763 164.669" stroke="#263238" stroke-linecap="round" stroke-linejoin="round"/>
<path d="M287.512 145.527C286.353 142.617 285.48 140.841 285.48 140.841C285.48 140.841 287.587 139.745 288.521 137.553C289.07 136.256 289.874 135.13 290.867 134.265" stroke="#263238" stroke-linecap="round" stroke-linejoin="round"/>
<path d="M277.282 150.152C277.282 150.152 285.729 146.053 285.729 146.864" stroke="#263238" stroke-linecap="round" stroke-linejoin="round"/>
<path d="M290.398 144.941C290.398 144.941 294.152 142.749 297.437 142.749" stroke="#263238" stroke-linecap="round" stroke-linejoin="round"/>
<path d="M288.99 151.506C287.366 153.064 285.876 154.804 284.541 156.701C283.171 158.584 282.063 160.707 281.257 162.992" stroke="#263238" stroke-linecap="round" stroke-linejoin="round"/>
<path d="M291.567 152.602C291.567 152.602 296.484 150.958 299.075 153.698" stroke="#263238" stroke-linecap="round" stroke-linejoin="round"/>
<path d="M300.473 115.628C297.925 113.863 295.105 113.825 293.725 111.967C292.345 110.11 295.053 109.167 296.508 109.869C297.963 110.57 301.323 112.609 301.961 113.036C302.599 113.463 302.158 107.041 300.975 104.619C299.793 102.197 296.56 100.783 294.945 102.761C291.538 106.942 286.226 101.462 286.588 98.1961C286.949 94.93 284.34 91.4228 278.741 93.4778C273.143 95.5328 275.227 96.6782 275.227 96.6782C275.227 96.6782 279.206 99.5278 281.754 101.287C284.302 103.046 288.526 104.575 287.62 105.841C286.714 107.107 284.269 106.339 282.228 104.427C280.187 102.514 274.321 97.9605 273.72 99.6593C273.119 101.358 271.008 106.027 271.008 106.027C273.603 106.492 276.169 107.157 278.69 108.016C282.101 109.266 282.801 111.452 280.135 111.622C277.47 111.792 272.627 109.43 271.12 112.433C269.614 115.436 270.651 123.053 270.651 123.053C270.651 123.053 275.536 119.19 278.023 119.217C280.51 119.245 278.92 120.861 276.146 122.938C274.939 123.8 273.775 124.74 272.66 125.755L275.189 133.328C275.189 133.328 279.375 132.704 281.027 132.841L282.679 132.978C282.679 132.978 282.678 125.026 284.631 122.67C286.583 120.313 286.935 125.766 287.348 127.158C287.761 128.55 286.512 132.715 286.512 132.715C286.512 132.715 291.351 129.624 292.918 128.391L294.485 127.163C294.485 127.163 292.674 121.393 291.449 119.743C290.224 118.094 288.544 118.341 289.962 116.905C291.379 115.469 293.486 116.225 294.692 118.264C295.898 120.302 297.315 124.292 297.315 124.292C297.315 124.292 299.122 124.637 301.468 121.552C303.814 118.467 303.026 117.409 300.473 115.628ZM278.314 124.396C276.437 123.3 280.891 121.108 280.891 121.108C282.528 120.845 280.187 125.492 278.314 124.396ZM281.468 114.187C280.67 113.721 283.063 112.789 283.063 112.789C286.527 113.568 282.266 114.658 281.468 114.192V114.187Z" fill="#FCB016"/>
<path d="M278.277 129.969C277.808 130.572 277.291 131.158 276.775 131.723" stroke="#263238" stroke-linecap="round" stroke-linejoin="round"/>
<path d="M287.873 112.954C285.721 118.319 283.012 123.354 279.807 127.947" stroke="#263238" stroke-linecap="round" stroke-linejoin="round"/>
<path d="M288.741 110.773C289.863 107.835 290.44 105.901 290.44 105.901C290.44 105.901 292.528 107.046 294.556 106.449C295.753 106.082 297.007 106.052 298.216 106.361" stroke="#263238" stroke-linecap="round" stroke-linejoin="round"/>
<path d="M286.724 110.055C287.254 109.507 279.075 104.772 279.075 104.772" stroke="#263238" stroke-linecap="round" stroke-linejoin="round"/>
<path d="M291.013 112.926C291.013 112.926 294.884 114.801 297.033 117.688" stroke="#263238" stroke-linecap="round" stroke-linejoin="round"/>
<path d="M285.846 115.995C283.773 115.582 281.67 115.408 279.567 115.475C277.453 115.508 275.356 115.93 273.354 116.724" stroke="#263238" stroke-linecap="round" stroke-linejoin="round"/>
<path d="M286.827 118.982C286.827 118.982 291.111 122.242 291.05 126.309" stroke="#263238" stroke-linecap="round" stroke-linejoin="round"/>
<path d="M264.086 153.539C262.035 152.125 259.764 152.092 258.652 150.596C257.54 149.1 259.727 148.344 260.89 148.908C262.054 149.472 264.767 151.1 265.283 151.456C265.799 151.812 265.438 146.634 264.49 144.683C263.542 142.732 260.937 141.598 259.637 143.187C256.892 146.552 252.598 142.146 252.913 139.515C253.227 136.885 251.101 134.035 246.596 135.718C242.091 137.4 243.781 138.293 243.781 138.293C243.781 138.293 246.981 140.584 249.032 142.003C251.083 143.423 254.485 144.634 253.757 145.669C253.03 146.705 251.059 146.069 249.417 144.53C247.774 142.99 243.049 139.324 242.565 140.694C242.082 142.064 240.388 145.817 240.388 145.817C242.471 146.19 244.531 146.723 246.554 147.412C249.299 148.415 249.863 150.179 247.713 150.316C245.564 150.453 241.674 148.568 240.463 150.963C239.252 153.358 240.078 159.512 240.078 159.512C240.078 159.512 244.006 156.405 246.01 156.416C248.014 156.427 246.732 157.72 244.494 159.408C243.521 160.102 242.581 160.858 241.678 161.671L243.715 167.77C245.271 167.524 246.838 167.392 248.408 167.376L249.736 167.485C249.736 167.485 249.736 161.09 251.308 159.189C252.88 157.287 253.185 161.682 253.495 162.805C253.804 163.929 252.824 167.272 252.824 167.272C252.824 167.272 256.714 164.784 257.986 163.797L259.248 162.811C259.248 162.811 257.788 158.164 256.803 156.838C255.818 155.511 254.457 155.709 255.602 154.552C256.747 153.396 258.417 154.004 259.412 155.648C260.226 157.197 260.932 158.819 261.524 160.498C261.524 160.498 262.974 160.778 264.865 158.279C266.756 155.78 266.137 154.958 264.086 153.539ZM246.254 160.586C244.747 159.704 248.328 157.945 248.328 157.945C249.651 157.725 247.774 161.463 246.249 160.564L246.254 160.586ZM248.793 152.366C248.15 151.988 250.078 151.237 250.078 151.237C252.861 151.867 249.431 152.744 248.788 152.371L248.793 152.366Z" fill="#FCB016"/>
<path d="M246.212 165.069C245.817 165.551 245.419 166.022 245.001 166.477" stroke="#263238" stroke-linecap="round" stroke-linejoin="round"/>
<path d="M253.945 151.374C252.211 155.688 250.029 159.737 247.45 163.43" stroke="#263238" stroke-linecap="round" stroke-linejoin="round"/>
<path d="M254.644 149.604C255.545 147.242 256.01 145.686 256.01 145.686C257.051 146.222 258.207 146.373 259.323 146.119C260.285 145.821 261.294 145.797 262.265 146.047" stroke="#263238" stroke-linecap="round" stroke-linejoin="round"/>
<path d="M246.836 144.787C246.836 144.787 253.405 148.623 252.988 149.04" stroke="#263238" stroke-linecap="round" stroke-linejoin="round"/>
<path d="M256.47 151.352C256.47 151.352 259.586 152.859 261.313 155.188" stroke="#263238" stroke-linecap="round" stroke-linejoin="round"/>
<path d="M252.312 153.818C250.645 153.487 248.953 153.348 247.263 153.402C245.561 153.425 243.873 153.76 242.26 154.394" stroke="#263238" stroke-linecap="round" stroke-linejoin="round"/>
<path d="M253.105 156.224C253.105 156.224 256.55 158.849 256.489 162.12" stroke="#263238" stroke-linecap="round" stroke-linejoin="round"/>
<path d="M255.719 108.383C255.719 108.383 253.143 110.575 251.496 108.383C249.848 106.191 252.199 101.807 249.858 100.163C247.516 98.5194 243.757 101.528 243.757 101.528C243.757 101.528 246.803 102.35 246.803 104.268C246.803 106.186 245.395 107.008 245.165 106.186C244.935 105.364 243.288 101.254 240.942 103.177C240.266 103.708 239.689 104.394 239.246 105.193C238.803 105.991 238.503 106.887 238.365 107.824C238.365 107.824 243.997 106.728 244.466 109.189C244.935 111.65 242.12 108.92 239.773 108.92C237.427 108.92 235.325 109.468 235.55 111.112C235.678 112.57 235.678 114.039 235.55 115.496C235.55 115.496 237.427 113.304 240.003 113.304C242.579 113.304 242.579 115.217 240.238 115.217C237.896 115.217 236.014 117.957 236.014 117.957C236.014 117.957 238.361 122.062 241.176 123.985C243.992 125.908 244.93 125.081 245.16 123.437C245.39 121.793 244.457 117.694 246.099 117.694C247.741 117.694 243.753 125.081 245.864 125.366C247.976 125.651 249.618 124.818 250.088 123.174L250.557 121.53C250.557 121.53 249.618 117.431 249.858 115.787C250.097 114.143 250.557 115.787 251.026 117.699C251.496 119.612 251.965 124.275 252.664 123.99C253.363 123.706 255.48 120.154 255.949 118.795C256.418 117.436 252.664 113.6 252.664 112.767C252.664 111.934 255.48 113.315 255.949 114.137C256.291 114.755 256.604 115.393 256.887 116.05C256.887 116.05 258.525 114.685 258.295 110.855C258.065 107.024 255.719 108.383 255.719 108.383Z" fill="#FCB016"/>
<path d="M242.612 118.302C244.231 115.661 246.629 112.071 248.713 110.296" stroke="#263238" stroke-linecap="round" stroke-linejoin="round"/>
<path d="M240.735 121.508C240.735 121.508 241.148 120.752 241.819 119.606" stroke="#263238" stroke-linecap="round" stroke-linejoin="round"/>
<path d="M249.867 110.844C249.867 110.844 252.683 114.943 253.377 119.322" stroke="#263238" stroke-linecap="round" stroke-linejoin="round"/>
<path d="M247.056 113.578C247.056 113.578 247.756 113.03 247.756 118.51" stroke="#263238" stroke-linecap="round" stroke-linejoin="round"/>
<path d="M248.713 108.383C248.713 108.383 250.121 106.739 249.182 103.731" stroke="#263238" stroke-linecap="round" stroke-linejoin="round"/>
<path d="M246.822 111.118L245.648 108.931" stroke="#263238" stroke-linecap="round" stroke-linejoin="round"/>
<path d="M244.715 113.578C244.715 113.578 241.2 110.838 239.083 110.838" stroke="#263238" stroke-linecap="round" stroke-linejoin="round"/>
<path d="M281.369 180.648C281.369 180.648 278.793 182.84 277.146 180.648C275.499 178.456 277.85 174.072 275.508 172.428C273.166 170.784 269.408 173.798 269.408 173.798C269.408 173.798 272.448 174.615 272.448 176.538C272.448 178.462 271.041 179.278 270.811 178.451C270.581 177.623 268.934 173.519 266.587 175.442C265.911 175.974 265.334 176.661 264.891 177.461C264.449 178.26 264.149 179.156 264.011 180.095C264.011 180.095 269.642 178.999 270.111 181.459C270.581 183.92 267.765 181.185 265.419 181.185C263.072 181.185 260.97 181.733 261.195 183.377C261.323 184.835 261.323 186.304 261.195 187.761C261.195 187.761 263.072 185.569 265.644 185.569C268.216 185.569 268.22 187.482 265.879 187.482C263.537 187.482 261.655 190.222 261.655 190.222C261.655 190.222 264.002 194.326 266.817 196.25C269.633 198.173 270.571 197.346 270.797 195.702C271.022 194.058 270.093 189.959 271.735 189.959C273.378 189.959 269.389 197.34 271.5 197.631C273.612 197.921 275.255 197.083 275.724 195.439L276.193 193.795C276.193 193.795 275.255 189.69 275.489 188.052C275.724 186.413 276.193 188.052 276.662 189.964C277.132 191.877 277.601 196.54 278.3 196.255C278.999 195.97 281.116 192.419 281.585 191.06C282.054 189.701 278.3 185.865 278.3 185.032C278.3 184.199 281.116 185.58 281.585 186.397C282.054 187.213 282.524 188.315 282.524 188.315C282.524 188.315 284.166 186.945 283.931 183.114C283.697 179.284 281.369 180.648 281.369 180.648Z" fill="#FCB016"/>
<path d="M268.249 190.567C269.868 187.926 272.27 184.342 274.349 182.566" stroke="#263238" stroke-linecap="round" stroke-linejoin="round"/>
<path d="M266.381 193.778C266.381 193.778 266.794 193.017 267.465 191.877" stroke="#263238" stroke-linecap="round" stroke-linejoin="round"/>
<path d="M275.513 183.109C275.513 183.109 278.328 187.213 279.028 191.586" stroke="#263238" stroke-linecap="round" stroke-linejoin="round"/>
<path d="M272.702 185.849C272.702 185.849 273.406 185.301 273.406 190.781" stroke="#263238" stroke-linecap="round" stroke-linejoin="round"/>
<path d="M274.344 180.648C274.344 180.648 275.752 179.004 274.814 176.001" stroke="#263238" stroke-linecap="round" stroke-linejoin="round"/>
<path d="M272.467 183.383L271.299 181.196" stroke="#263238" stroke-linecap="round" stroke-linejoin="round"/>
<path d="M270.36 185.849C270.36 185.849 266.85 183.109 264.729 183.109" stroke="#263238" stroke-linecap="round" stroke-linejoin="round"/>
<path d="M279.37 221.748H261.266V252.179H279.37V221.748Z" fill="#263238" stroke="#263238" stroke-width="2" stroke-linecap="round" stroke-linejoin="round"/>
<path d="M165.023 207.708H31.7977V252.173H165.023V207.708Z" fill="white" stroke="#263238" stroke-linecap="round" stroke-linejoin="round"/>
<path d="M179.866 207.708H51.1176V252.173H179.866V207.708Z" fill="#C9C9C9" stroke="#263238" stroke-linecap="round" stroke-linejoin="round"/>
<path d="M65.4584 211.714H93.5301V228.691H84.7313" stroke="#263238" stroke-linecap="round" stroke-linejoin="round"/>
<path d="M82.7745 228.691H54.149V211.714H63.6518" stroke="#263238" stroke-linecap="round" stroke-linejoin="round"/>
<path d="M74.3417 249.921H54.149V232.938H59.4377" stroke="#263238" stroke-linecap="round" stroke-linejoin="round"/>
<path d="M61.6948 232.938H93.5301V249.921H76.9038" stroke="#263238" stroke-linecap="round" stroke-linejoin="round"/>
<path d="M109.124 228.691H96.1017V211.714H135.487V228.691H111.836" stroke="#263238" stroke-linecap="round" stroke-linejoin="round"/>
<path d="M116.351 232.938H135.487V249.921H96.1017V232.938H113.943" stroke="#263238" stroke-linecap="round" stroke-linejoin="round"/>
<path d="M138.059 218.044V211.714H177.445V228.691H138.059V219.978" stroke="#263238" stroke-linecap="round" stroke-linejoin="round"/>
<path d="M141.949 232.938H177.445V249.921H138.059V232.938H140.593" stroke="#263238" stroke-linecap="round" stroke-linejoin="round"/>
<path d="M52.6192 196.54C52.6208 198.375 52.2364 200.183 51.5001 201.804C50.7637 203.426 49.6977 204.811 48.3958 205.839C47.0939 206.867 45.5957 207.506 44.0329 207.7C42.4701 207.894 40.8905 207.637 39.4326 206.952C37.9747 206.267 36.6831 205.174 35.6713 203.769C34.6595 202.365 33.9583 200.692 33.6294 198.898C33.3005 197.103 33.3538 195.241 33.7847 193.477C34.2157 191.712 35.011 190.097 36.101 188.775C36.4989 188.286 36.9357 187.842 37.4055 187.449C38.1136 186.84 38.6882 186.044 39.0821 185.125C39.4761 184.207 39.6782 183.193 39.6721 182.166V181.777C39.6719 178.36 39.1753 174.967 38.2033 171.743H47.8374L47.7623 171.995C46.8342 175.145 46.3586 178.452 46.3545 181.783V182.166C46.3537 183.202 46.5624 184.223 46.9636 185.147C47.3648 186.071 47.9472 186.871 48.6633 187.482C49.889 188.519 50.8866 189.881 51.5743 191.455C52.2619 193.03 52.6201 194.773 52.6192 196.54Z" fill="#FCB016" stroke="#263238" stroke-linecap="round" stroke-linejoin="round"/>
<path d="M53.722 201.543C54.517 203.409 55.7418 204.979 57.2589 206.076C58.776 207.174 60.5252 207.755 62.3097 207.755C64.0942 207.755 65.8433 207.174 67.3604 206.076C68.8775 204.979 70.1024 203.409 70.8973 201.543H53.722Z" fill="#FCB016" stroke="#263238" stroke-linecap="round" stroke-linejoin="round"/>
<path d="M38.9165 174.143H47.0865" stroke="#263238" stroke-linecap="round" stroke-linejoin="round"/>
<path d="M39.3577 177.322H46.6454" stroke="#263238" stroke-linecap="round" stroke-linejoin="round"/>
<path d="M39.6533 180.5H46.3498" stroke="#263238" stroke-linecap="round" stroke-linejoin="round"/>
<path d="M39.5782 183.684H46.4249" stroke="#263238" stroke-linecap="round" stroke-linejoin="round"/>
<path d="M37.9592 186.863H47.9687" stroke="#263238" stroke-linecap="round" stroke-linejoin="round"/>
<path d="M50.01 204.223C49.1414 205.29 48.1014 206.146 46.9494 206.743C45.7975 207.34 44.556 207.667 43.296 207.704C42.036 207.74 40.7822 207.487 39.606 206.958C38.4298 206.429 37.3544 205.635 36.4411 204.62C35.5278 203.606 34.7946 202.392 34.2832 201.046C33.7718 199.701 33.4924 198.251 33.4608 196.78C33.4292 195.309 33.6461 193.844 34.0991 192.471C34.5521 191.097 35.2323 189.842 36.1009 188.775C37.0723 192.529 40.2023 200.705 50.01 204.223Z" fill="#263238" stroke="#263238" stroke-linecap="round" stroke-linejoin="round"/>
<path d="M109.096 196.25C110.628 199.843 112.989 202.867 115.912 204.98C118.834 207.094 122.204 208.213 125.642 208.213C129.08 208.213 132.45 207.094 135.373 204.98C138.296 202.867 140.656 199.843 142.189 196.25H109.096Z" fill="#FCB016" stroke="#263238" stroke-linecap="round" stroke-linejoin="round"/>
<path d="M168.097 207.171H122.479V252.179H168.144V207.243C168.144 207.21 168.125 207.171 168.097 207.171ZM166.591 249.143H124.018V210.202H166.558C166.581 210.202 166.6 210.246 166.6 210.295L166.591 249.143Z" fill="#263238" stroke="#263238" stroke-linecap="round" stroke-linejoin="round"/>
<path d="M136.44 207.171H90.8176V252.179H136.482V207.243C136.482 207.21 136.463 207.171 136.44 207.171ZM134.943 249.143H92.3615V210.202H134.896C134.92 210.202 134.943 210.246 134.943 210.295V249.143Z" fill="#263238" stroke="#263238" stroke-linecap="round" stroke-linejoin="round"/>
<path d="M89.7008 207.171H169.477C169.499 207.171 169.521 207.182 169.536 207.2C169.552 207.219 169.561 207.244 169.561 207.27V211.172H89.7008V207.177V207.171Z" fill="white" stroke="#263238" stroke-linecap="round" stroke-linejoin="round"/>
<path d="M134.887 207.171H169.467C169.478 207.171 169.489 207.174 169.5 207.179C169.51 207.184 169.519 207.191 169.527 207.2C169.535 207.209 169.541 207.22 169.545 207.232C169.549 207.244 169.552 207.257 169.552 207.27V211.172H134.887V207.177V207.171Z" fill="#263238" stroke="#263238" stroke-linecap="round" stroke-linejoin="round"/>
<path d="M163.766 67.2615H55.4395V150.229H163.766V67.2615Z" fill="#263238" stroke="#263238" stroke-linecap="round" stroke-linejoin="round"/>
<path d="M160.692 70.3358H58.5084V147.154H160.692V70.3358Z" fill="#C9C9C9" stroke="#263238" stroke-linecap="round" stroke-linejoin="round"/>
<path d="M84.3512 123.782H63.6141V141.899H84.3512V123.782Z" fill="#DBDBDB"/>
<path d="M108.777 123.782H88.0396V141.899H108.777V123.782Z" fill="#DBDBDB"/>
<path d="M133.202 123.782H112.465V141.899H133.202V123.782Z" fill="#DBDBDB"/>
<path d="M157.628 123.782H136.891V141.899H157.628V123.782Z" fill="#DBDBDB"/>
<path d="M157.163 74.0732H64.2383V119.617H157.163V74.0732Z" fill="#7A7A7A"/>
<path d="M157.163 116.45H64.2383V119.617H157.163V116.45Z" fill="#A6A6A6"/>
<path d="M118.5 97.0453L109.166 90.7543V103.336L118.5 97.0453Z" fill="#DBDBDB"/>
<path d="M41.9949 75.065H28.7192V127.125H41.9949V75.065Z" fill="#263238" stroke="#263238" stroke-linecap="round" stroke-linejoin="round"/>
<path d="M44.2615 75.065H30.9858V127.125H44.2615V75.065Z" fill="#263238" stroke="#263238" stroke-linecap="round" stroke-linejoin="round"/>
<path d="M40.1665 86.4148C42.2953 85.1207 43.1226 82.0564 42.0145 79.5705C40.9063 77.0846 38.2823 76.1185 36.1535 77.4125C34.0248 78.7066 33.1974 81.7709 34.3056 84.2568C35.4137 86.7427 38.0378 87.7089 40.1665 86.4148Z" fill="#4F4F4F" stroke="#263238" stroke-linecap="round" stroke-linejoin="round"/>
<path d="M39.5125 81.9095C39.5125 82.2206 39.4335 82.5247 39.2855 82.7833C39.1375 83.042 38.9271 83.2436 38.6811 83.3626C38.435 83.4816 38.1642 83.5128 37.9029 83.4521C37.6416 83.3914 37.4017 83.2416 37.2133 83.0217C37.025 82.8017 36.8967 82.5215 36.8447 82.2164C36.7928 81.9113 36.8194 81.5951 36.9214 81.3077C37.0233 81.0203 37.1959 80.7747 37.4174 80.6018C37.6389 80.429 37.8993 80.3368 38.1657 80.3368C38.5228 80.3368 38.8654 80.5025 39.118 80.7974C39.3706 81.0924 39.5125 81.4924 39.5125 81.9095Z" fill="#263238" stroke="#263238" stroke-linecap="round" stroke-linejoin="round"/>
<path d="M38.1656 98.7057C40.5655 98.7057 42.5111 96.4338 42.5111 93.6313C42.5111 90.8287 40.5655 88.5568 38.1656 88.5568C35.7657 88.5568 33.8202 90.8287 33.8202 93.6313C33.8202 96.4338 35.7657 98.7057 38.1656 98.7057Z" fill="#4F4F4F" stroke="#263238" stroke-linecap="round" stroke-linejoin="round"/>
<path d="M38.1657 95.204C38.9095 95.204 39.5125 94.4999 39.5125 93.6313C39.5125 92.7627 38.9095 92.0585 38.1657 92.0585C37.4218 92.0585 36.8188 92.7627 36.8188 93.6313C36.8188 94.4999 37.4218 95.204 38.1657 95.204Z" fill="#263238" stroke="#263238" stroke-linecap="round" stroke-linejoin="round"/>
<path d="M40.1666 110.773C42.2954 109.479 43.1227 106.414 42.0146 103.928C40.9064 101.443 38.2824 100.476 36.1536 101.77C34.0249 103.065 33.1975 106.129 34.3057 108.615C35.4139 111.101 38.0379 112.067 40.1666 110.773Z" fill="#4F4F4F" stroke="#263238" stroke-linecap="round" stroke-linejoin="round"/>
<path d="M39.5124 106.263C39.5087 106.573 39.4266 106.875 39.2764 107.13C39.1262 107.386 38.9146 107.584 38.6682 107.7C38.4218 107.816 38.1516 107.844 37.8916 107.781C37.6316 107.717 37.3934 107.566 37.2069 107.345C37.0204 107.124 36.894 106.844 36.8435 106.54C36.793 106.235 36.8208 105.92 36.9233 105.634C37.0257 105.348 37.1983 105.103 37.4194 104.932C37.6404 104.76 37.9001 104.668 38.1656 104.668C38.3441 104.668 38.5208 104.709 38.6854 104.79C38.8501 104.87 38.9994 104.988 39.1247 105.136C39.25 105.285 39.3488 105.461 39.4154 105.654C39.4819 105.847 39.5149 106.054 39.5124 106.263Z" fill="#263238" stroke="#263238" stroke-linecap="round" stroke-linejoin="round"/>
<path d="M38.1656 123.059C40.5655 123.059 42.5111 120.787 42.5111 117.984C42.5111 115.182 40.5655 112.91 38.1656 112.91C35.7657 112.91 33.8202 115.182 33.8202 117.984C33.8202 120.787 35.7657 123.059 38.1656 123.059Z" fill="#4F4F4F" stroke="#263238" stroke-linecap="round" stroke-linejoin="round"/>
<path d="M39.5125 117.984C39.5125 118.295 39.4335 118.6 39.2855 118.858C39.1375 119.117 38.9271 119.318 38.6811 119.437C38.435 119.556 38.1642 119.588 37.9029 119.527C37.6416 119.466 37.4017 119.316 37.2133 119.096C37.025 118.877 36.8967 118.596 36.8447 118.291C36.7928 117.986 36.8194 117.67 36.9214 117.383C37.0233 117.095 37.1959 116.849 37.4174 116.677C37.6389 116.504 37.8993 116.412 38.1657 116.412C38.5228 116.412 38.8654 116.577 39.118 116.872C39.3706 117.167 39.5125 117.567 39.5125 117.984Z" fill="#263238" stroke="#263238" stroke-linecap="round" stroke-linejoin="round"/>
<path d="M182.264 75.065H168.989V127.125H182.264V75.065Z" fill="#263238" stroke="#263238" stroke-linecap="round" stroke-linejoin="round"/>
<path d="M184.535 75.065H171.26V127.125H184.535V75.065Z" fill="#263238" stroke="#263238" stroke-linecap="round" stroke-linejoin="round"/>
<path d="M180.089 86.5899C182.309 85.5233 183.367 82.5576 182.454 79.966C181.541 77.3743 179.001 76.1381 176.782 77.2047C174.563 78.2713 173.504 81.2369 174.417 83.8285C175.331 86.4202 177.87 87.6565 180.089 86.5899Z" fill="#4F4F4F" stroke="#263238" stroke-linecap="round" stroke-linejoin="round"/>
<path d="M179.786 81.9095C179.787 82.2219 179.709 82.5276 179.561 82.7879C179.413 83.0481 179.202 83.2513 178.955 83.3716C178.709 83.4918 178.437 83.5239 178.174 83.4636C177.912 83.4033 177.67 83.2535 177.481 83.033C177.292 82.8124 177.162 82.5312 177.11 82.2249C177.057 81.9187 177.084 81.601 177.186 81.3123C177.288 81.0236 177.461 80.7768 177.684 80.6032C177.906 80.4295 178.167 80.3368 178.435 80.3368C178.793 80.3368 179.136 80.5023 179.389 80.7971C179.642 81.0919 179.785 81.4919 179.786 81.9095Z" fill="#263238" stroke="#263238" stroke-linecap="round" stroke-linejoin="round"/>
<path d="M178.435 98.7057C180.835 98.7057 182.78 96.4338 182.78 93.6313C182.78 90.8287 180.835 88.5568 178.435 88.5568C176.035 88.5568 174.089 90.8287 174.089 93.6313C174.089 96.4338 176.035 98.7057 178.435 98.7057Z" fill="#4F4F4F" stroke="#263238" stroke-linecap="round" stroke-linejoin="round"/>
<path d="M178.435 95.204C179.179 95.204 179.782 94.4999 179.782 93.6313C179.782 92.7627 179.179 92.0585 178.435 92.0585C177.691 92.0585 177.088 92.7627 177.088 93.6313C177.088 94.4999 177.691 95.204 178.435 95.204Z" fill="#263238" stroke="#263238" stroke-linecap="round" stroke-linejoin="round"/>
<path d="M180.091 110.941C182.31 109.874 183.369 106.908 182.456 104.317C181.542 101.725 179.003 100.489 176.783 101.555C174.564 102.622 173.505 105.588 174.419 108.179C175.332 110.771 177.872 112.007 180.091 110.941Z" fill="#4F4F4F" stroke="#263238" stroke-linecap="round" stroke-linejoin="round"/>
<path d="M179.786 106.263C179.787 106.575 179.709 106.881 179.561 107.141C179.413 107.401 179.202 107.604 178.955 107.725C178.709 107.845 178.437 107.877 178.174 107.817C177.912 107.756 177.67 107.607 177.481 107.386C177.292 107.166 177.162 106.884 177.11 106.578C177.057 106.272 177.084 105.954 177.186 105.665C177.288 105.377 177.461 105.13 177.684 104.956C177.906 104.783 178.167 104.69 178.435 104.69C178.793 104.69 179.136 104.855 179.389 105.15C179.642 105.445 179.785 105.845 179.786 106.263Z" fill="#263238" stroke="#263238" stroke-linecap="round" stroke-linejoin="round"/>
<path d="M178.435 123.059C180.835 123.059 182.78 120.787 182.78 117.984C182.78 115.182 180.835 112.91 178.435 112.91C176.035 112.91 174.089 115.182 174.089 117.984C174.089 120.787 176.035 123.059 178.435 123.059Z" fill="#4F4F4F" stroke="#263238" stroke-linecap="round" stroke-linejoin="round"/>
<path d="M179.786 117.984C179.787 118.297 179.709 118.602 179.561 118.863C179.413 119.123 179.202 119.326 178.955 119.446C178.709 119.567 178.437 119.599 178.174 119.538C177.912 119.478 177.67 119.328 177.481 119.108C177.292 118.887 177.162 118.606 177.11 118.3C177.057 117.993 177.084 117.676 177.186 117.387C177.288 117.098 177.461 116.852 177.684 116.678C177.906 116.504 178.167 116.412 178.435 116.412C178.793 116.412 179.136 116.577 179.389 116.872C179.642 117.167 179.785 117.567 179.786 117.984Z" fill="#263238" stroke="#263238" stroke-linecap="round" stroke-linejoin="round"/>
<path d="M149.162 156.377H68.7244C67.9262 156.377 67.2791 157.133 67.2791 158.065V164.422C67.2791 165.354 67.9262 166.11 68.7244 166.11H149.162C149.96 166.11 150.607 165.354 150.607 164.422V158.065C150.607 157.133 149.96 156.377 149.162 156.377Z" fill="#263238" stroke="#263238" stroke-linecap="round" stroke-linejoin="round"/>
<path d="M70.2402 166.104H149.303V163.063H70.2402V166.104Z" fill="#C9C9C9" stroke="#263238" stroke-linecap="round" stroke-linejoin="round"/>
<path d="M91.2635 183.054H73.6893V207.374H91.2635V183.054Z" fill="#263238" stroke="#263238" stroke-linecap="round" stroke-linejoin="round"/>
<path d="M95.7825 183.054H78.2084V207.374H95.7825V183.054Z" fill="#263238" stroke="#263238" stroke-linecap="round" stroke-linejoin="round"/>
<path d="M87.8425 194.978C90.2424 194.978 92.1879 192.706 92.1879 189.904C92.1879 187.101 90.2424 184.829 87.8425 184.829C85.4426 184.829 83.4971 187.101 83.4971 189.904C83.4971 192.706 85.4426 194.978 87.8425 194.978Z" fill="#4F4F4F" stroke="#263238" stroke-linecap="round" stroke-linejoin="round"/>
<path d="M89.194 189.904C89.1949 190.216 89.1164 190.522 88.9685 190.782C88.8205 191.042 88.6098 191.246 88.3629 191.366C88.116 191.486 87.8442 191.518 87.5817 191.458C87.3192 191.398 87.078 191.248 86.8885 191.027C86.699 190.807 86.5698 190.526 86.5173 190.219C86.4648 189.913 86.4912 189.595 86.5934 189.307C86.6955 189.018 86.8688 188.771 87.0911 188.597C87.3135 188.424 87.575 188.331 87.8425 188.331C88.0197 188.33 88.1953 188.371 88.3593 188.449C88.5232 188.528 88.6723 188.644 88.7978 188.79C88.9234 188.936 89.023 189.11 89.091 189.301C89.159 189.492 89.194 189.697 89.194 189.904Z" fill="#263238" stroke="#263238" stroke-linecap="round" stroke-linejoin="round"/>
<path d="M87.8425 206.7C90.2424 206.7 92.1879 204.428 92.1879 201.626C92.1879 198.823 90.2424 196.551 87.8425 196.551C85.4426 196.551 83.4971 198.823 83.4971 201.626C83.4971 204.428 85.4426 206.7 87.8425 206.7Z" fill="#4F4F4F" stroke="#263238" stroke-linecap="round" stroke-linejoin="round"/>
<path d="M87.8425 203.198C88.5863 203.198 89.1893 202.494 89.1893 201.626C89.1893 200.757 88.5863 200.053 87.8425 200.053C87.0987 200.053 86.4957 200.757 86.4957 201.626C86.4957 202.494 87.0987 203.198 87.8425 203.198Z" fill="#263238" stroke="#263238" stroke-linecap="round" stroke-linejoin="round"/>
<path d="M250.233 120.445C250.233 120.445 246.948 124.796 246.948 126.013C246.948 127.229 246.052 128.446 246.052 128.446C246.052 128.446 242.476 132.797 242.927 133.838C243.301 134.529 243.887 135.027 244.564 135.23C244.564 135.23 242.331 143.581 243.668 144.628C245.006 145.675 248.882 144.453 248.882 144.453L248.736 151.412C248.736 151.412 253.95 148.804 257.225 149.845L260.51 150.886C260.51 150.886 260.041 144.973 260.656 143.932C261.27 142.891 268.108 139.06 268.999 133.52C269.891 127.98 269.469 122.385 264.682 119.272C259.896 116.16 256.934 115.792 256.934 115.792C256.934 115.792 258.572 112.658 256.465 111.956C254.358 111.255 248.868 113.524 248.572 116.483C248.46 117.263 248.561 118.065 248.859 118.775C249.156 119.485 249.637 120.069 250.233 120.445Z" fill="white" stroke="#263238" stroke-linecap="round" stroke-linejoin="round"/>
<path d="M243.677 144.628C244.659 144.359 245.623 144.011 246.563 143.587C247.745 143.093 248.902 142.526 250.031 141.888L249.065 148.508L248.891 144.469C248.891 144.469 244.996 145.856 243.677 144.628Z" fill="#263238" stroke="#263238" stroke-linecap="round" stroke-linejoin="round"/>
<path d="M248.244 129.103C248.079 129.854 247.68 130.391 247.361 130.292C247.042 130.194 246.892 129.509 247.075 128.758C247.258 128.007 247.633 127.47 247.953 127.569C248.272 127.668 248.422 128.353 248.244 129.103Z" fill="#263238"/>
<path d="M246.958 126.04C246.958 126.04 248.746 123.952 249.342 126.215" stroke="#263238" stroke-linecap="round" stroke-linejoin="round"/>
<path d="M245.17 137.318C245.17 137.318 247.554 136.77 248.891 134.709" stroke="#263238" stroke-linecap="round" stroke-linejoin="round"/>
<path d="M269.154 161.846C269.154 161.846 265.869 154.021 262.303 151.434C258.736 148.848 253.659 148.146 248.445 150.212C243.232 152.278 239.21 161.523 238.614 164.131C238.134 166.004 237.485 167.812 236.676 169.524H269.9L269.154 161.846Z" fill="#FCB016" stroke="#263238" stroke-linecap="round" stroke-linejoin="round"/>
<path d="M269.004 133.493C269.9 127.925 269.473 122.357 264.687 119.245C259.9 116.132 256.939 115.765 256.939 115.765C256.939 115.765 258.577 112.63 256.47 111.929C254.363 111.228 248.872 113.496 248.577 116.455C248.456 117.239 248.549 118.046 248.843 118.764C249.137 119.482 249.617 120.074 250.214 120.456C250.214 120.456 252.598 121.672 253.64 121.672C254.682 121.672 251.557 124.632 251.557 126.024C251.557 127.415 254.236 128.977 254.236 128.977C254.236 128.977 252.002 132.983 252.899 133.849C253.795 134.715 254.832 134.72 255.283 134.024C255.733 133.328 258.408 128.807 259.75 131.416C261.092 134.024 259.004 138.2 258.112 138.896C257.221 139.592 255.132 139.937 255.132 139.937C255.132 139.937 257.225 144.382 260.351 145.9C260.327 145.231 260.426 144.563 260.642 143.943C261.256 142.886 268.112 139.06 269.004 133.493Z" fill="#263238" stroke="#263238" stroke-linecap="round" stroke-linejoin="round"/>
<path d="M172.222 144.672L183.954 156.542C184.038 156.627 184.139 156.688 184.247 156.721C184.355 156.753 184.468 156.755 184.578 156.728L186.183 156.322C186.313 156.288 186.432 156.213 186.528 156.105C186.624 155.996 186.692 155.859 186.725 155.708C186.758 155.557 186.755 155.398 186.715 155.25C186.676 155.101 186.602 154.968 186.502 154.865L174.836 143.077C174.756 142.996 174.661 142.937 174.559 142.903C174.456 142.87 174.349 142.864 174.244 142.886L172.578 143.209C172.443 143.234 172.317 143.303 172.214 143.41C172.112 143.516 172.038 143.654 172 143.807C171.963 143.961 171.964 144.124 172.003 144.278C172.042 144.431 172.118 144.568 172.222 144.672Z" fill="#263238" stroke="#263238" stroke-linecap="round" stroke-linejoin="round"/>
<path d="M190.641 174.582L184.939 156.317C184.939 156.317 184.648 154.267 184.352 153.752C184.057 153.237 183.475 152.048 183.475 152.048C183.475 152.048 182.602 147.949 182.161 147.949C181.884 147.969 181.616 148.074 181.385 148.254C181.154 148.434 180.969 148.682 180.847 148.974C180.551 149.659 180.551 152.733 180.551 152.733L176.915 149.319C176.915 149.319 176.473 151.878 176.473 152.558C176.473 153.237 178.083 154.437 178.083 155.122C178.083 155.807 178.815 157.512 179.542 158.191C180.27 158.871 182.175 159.391 182.175 159.391L183.344 177.141L191.227 176.456L190.641 174.582Z" fill="white" stroke="#263238" stroke-linecap="round" stroke-linejoin="round"/>
<path d="M187.792 165.458C185.994 165.317 184.202 165.824 182.658 166.91L183.33 177.141L191.227 176.456L190.641 174.576L187.792 165.458Z" fill="#FCB016" stroke="#263238" stroke-linecap="round" stroke-linejoin="round"/>
<path d="M216.267 122.357C216.267 122.357 213.884 126.533 213.884 127.75C213.884 128.966 212.992 129.662 212.396 130.358C211.8 131.054 209.862 130.709 209.862 132.446C209.862 134.183 211.8 137.318 211.8 137.318C211.8 137.318 211.354 142.71 212.269 144.628C213.184 146.546 217.741 146.02 217.741 146.02L218.933 153.692C218.933 153.692 224.888 151.78 226.38 151.78H229.956L229.674 143.576C229.674 143.576 231.613 140.617 231.613 134.879C231.613 129.142 222.673 121.311 220.589 120.96C218.506 120.609 216.267 122.357 216.267 122.357Z" fill="white" stroke="#263238" stroke-linecap="round" stroke-linejoin="round"/>
<path d="M213.048 145.379C213.889 145.329 214.725 145.202 215.55 145.001C217.323 144.623 218.698 143.307 218.778 143.023C218.858 142.738 218.215 148.771 218.215 148.771L217.746 146.031C217.746 146.031 213.949 146.606 213.048 145.379Z" fill="#263238" stroke="#263238" stroke-linecap="round" stroke-linejoin="round"/>
<path d="M212.246 138.54C212.246 138.54 213.884 139.236 214.329 137.844" stroke="#263238" stroke-linecap="round" stroke-linejoin="round"/>
<path d="M214.766 130.577C214.616 131.273 214.297 131.783 214.057 131.712C213.818 131.641 213.748 131.016 213.898 130.32C214.048 129.624 214.367 129.114 214.606 129.18C214.846 129.246 214.925 129.876 214.766 130.577Z" fill="#263238"/>
<path d="M213.884 127.75C213.884 127.75 215.075 126.358 215.521 128.298" stroke="#263238" stroke-linecap="round" stroke-linejoin="round"/>
<path d="M231.462 150.886C231.462 150.886 226.399 148.974 221.781 150.886C217.492 152.707 213.311 154.858 209.266 157.325C207.478 158.542 204.944 160.454 204.498 162.022C204.052 163.589 203.456 168.636 203.456 168.636H240.402C240.402 168.636 238.018 154.196 235.935 152.629C234.576 151.659 233.047 151.063 231.462 150.886Z" fill="#FCB016" stroke="#263238" stroke-linecap="round" stroke-linejoin="round"/>
<path d="M189.909 170.143L175.877 170.976C175.877 170.976 157.75 166.044 154.826 166.367C151.902 166.691 154.239 174.73 154.094 178.999C153.949 183.268 154.53 190.435 154.53 190.435H190.054L189.909 170.143Z" fill="#FCB016" stroke="#263238" stroke-linecap="round" stroke-linejoin="round"/>
<path d="M159.683 168.57C162.607 169.19 166.276 170.061 167.834 170.828C170.612 172.193 175.145 173.897 175.145 173.897C175.145 173.897 185.085 172.193 188.285 171.853" stroke="#263238" stroke-linecap="round" stroke-linejoin="round"/>
<path d="M155.553 167.754C155.553 167.754 156.553 167.935 158.003 168.225" stroke="#263238" stroke-linecap="round" stroke-linejoin="round"/>
<path d="M206.009 159.216C206.009 159.216 190.054 158.021 189.491 160.411C188.928 162.8 188.468 189.263 188.468 189.263H248.535V161.863C248.535 161.863 248.244 161.178 246.657 161.178C245.071 161.178 231.871 161.6 231.871 161.6L206.009 159.216Z" fill="white" stroke="#263238" stroke-linecap="round" stroke-linejoin="round"/>
<path d="M195.901 164.17C194.963 164.948 192.931 185.728 192.588 189.263H248.53V162.345C244.269 163.112 232.575 164.51 228.623 164.51C224.409 164.51 196.924 163.304 195.901 164.17Z" fill="#C9C9C9" stroke="#263238" stroke-linecap="round" stroke-linejoin="round"/>
<path d="M254.231 161.112C254.231 161.112 290.966 158.723 294.912 158.723C298.859 158.723 299.445 160.087 300.178 161.797C300.655 163.025 300.855 164.376 300.759 165.721C300.759 166.236 296.958 183.136 296.958 183.136H245.606L246.484 161.282L254.231 161.112Z" fill="white" stroke="#263238" stroke-linecap="round" stroke-linejoin="round"/>
<path d="M300.759 165.704C300.759 165.704 300.332 163.852 298.713 163.852C297.221 163.852 252.138 164.882 246.324 165.304L245.606 183.147H296.958C296.958 183.147 300.759 166.219 300.759 165.704Z" fill="#C9C9C9" stroke="#263238" stroke-linecap="round" stroke-linejoin="round"/>
<path d="M144.967 187.224H302.679C303.486 187.224 304.261 187.599 304.832 188.266C305.403 188.933 305.724 189.838 305.724 190.781V252.157H142.001V190.704C141.998 190.248 142.073 189.795 142.221 189.373C142.369 188.95 142.587 188.566 142.863 188.243C143.139 187.919 143.467 187.663 143.828 187.488C144.189 187.313 144.576 187.223 144.967 187.224Z" fill="white" stroke="#263238" stroke-linecap="round" stroke-linejoin="round"/>
<path d="M199.561 171.08H292.946V196.146H197.126V173.924C197.127 173.17 197.384 172.448 197.841 171.915C198.297 171.382 198.916 171.082 199.561 171.08Z" fill="white" stroke="#263238" stroke-linecap="round" stroke-linejoin="round"/>
<path d="M297.268 187.224V174.461C297.268 173.565 296.963 172.705 296.42 172.07C295.877 171.436 295.141 171.08 294.373 171.08H203.738C203.137 171.08 202.561 171.357 202.134 171.85C201.707 172.344 201.464 173.014 201.457 173.716V187.202H190.889C190.594 187.2 190.301 187.267 190.028 187.398C189.754 187.529 189.506 187.722 189.297 187.967C189.089 188.211 188.924 188.501 188.812 188.821C188.7 189.14 188.644 189.482 188.646 189.827V252.179H305.964V190.551C305.964 189.668 305.664 188.822 305.129 188.198C304.595 187.575 303.871 187.224 303.115 187.224H297.268Z" fill="#263238" stroke="#263238" stroke-linecap="round" stroke-linejoin="round"/>
<path d="M261.407 154.448C260.788 152.926 259.786 151.66 258.535 150.821C257.284 149.981 255.843 149.608 254.405 149.752C249.191 150.097 248.746 153.752 247.699 157.583C246.653 161.413 245.616 169.063 245.616 169.063C245.616 169.063 224.611 160.361 223.865 159.841C223.119 159.32 221.185 157.057 219.693 155.495C219.011 154.797 218.179 154.331 217.287 154.147C216.394 153.962 215.475 154.066 214.63 154.448C213.137 155.144 209.566 157.928 208.82 158.624C208.074 159.32 208.074 159.665 208.97 159.841C209.867 160.016 213.733 160.016 213.733 160.016C213.733 160.016 216.418 160.712 217.76 161.929C219.102 163.145 221.781 163.496 221.781 163.496C221.781 163.496 231.312 172.368 235.339 175.848C239.365 179.328 247.404 185.224 249.342 185.224C251.28 185.224 253.809 185.224 254.405 183.487C255.001 181.75 261.407 158.432 261.407 158.432" fill="white"/>
<path d="M261.407 154.448C260.788 152.926 259.786 151.66 258.535 150.821C257.284 149.981 255.843 149.608 254.405 149.752C249.191 150.097 248.746 153.752 247.699 157.583C246.653 161.413 245.616 169.063 245.616 169.063C245.616 169.063 224.611 160.361 223.865 159.841C223.119 159.32 221.185 157.057 219.693 155.495C219.011 154.797 218.179 154.331 217.287 154.147C216.394 153.962 215.475 154.066 214.63 154.448C213.137 155.144 209.566 157.928 208.82 158.624C208.074 159.32 208.074 159.665 208.97 159.841C209.867 160.016 213.733 160.016 213.733 160.016C213.733 160.016 216.418 160.712 217.76 161.929C219.102 163.145 221.781 163.496 221.781 163.496C221.781 163.496 231.312 172.368 235.339 175.848C239.365 179.328 247.404 185.224 249.342 185.224C251.28 185.224 253.809 185.224 254.405 183.487C255.001 181.75 261.407 158.432 261.407 158.432" stroke="#263238" stroke-linecap="round" stroke-linejoin="round"/>
<path d="M261.407 154.448C260.801 153.188 258.591 149.472 254.405 149.752C249.191 150.097 248.746 153.752 247.699 157.583C247.286 159.095 246.873 161.216 246.526 163.222C247.765 162.493 249.848 161.874 253.063 162.624C255.372 163.099 257.529 164.294 259.304 166.082C260.243 162.712 261.355 158.772 261.651 157.742" fill="#FCB016"/>
<path d="M261.407 154.448C260.801 153.188 258.591 149.472 254.405 149.752C249.191 150.097 248.746 153.752 247.699 157.583C247.286 159.095 246.873 161.216 246.526 163.222C247.765 162.493 249.848 161.874 253.063 162.624C255.372 163.099 257.529 164.294 259.304 166.082C260.243 162.712 261.355 158.772 261.651 157.742" stroke="#263238" stroke-linecap="round" stroke-linejoin="round"/>
<path d="M252.805 171.365L254.123 171.798" stroke="#263238" stroke-linecap="round" stroke-linejoin="round"/>
<path d="M245.845 169.085L251.974 171.097" stroke="#263238" stroke-linecap="round" stroke-linejoin="round"/>
<path d="M220.885 114.877C220.885 114.877 215.226 114.877 214.63 117.316C214.034 119.754 218.651 132.276 219.548 133.493C220.444 134.709 221.927 140.617 223.865 142.365C225.182 143.489 226.64 144.368 228.187 144.973C228.187 144.973 230.12 148.974 228.187 153.15C226.253 157.325 222.086 159.238 221.781 167.589C221.476 175.941 227.126 179.744 230.12 180.462C233.114 181.18 235.784 177.853 235.784 177.853C235.784 177.853 232.654 177.678 234.292 174.374C235.93 171.069 240.862 171.245 240.998 163.238C241.134 155.232 237.713 150.716 235.339 149.149C232.964 147.582 231.017 144.453 231.017 144.453C231.017 144.453 235.339 140.973 236.976 136.101C238.614 131.23 239.06 124.966 236.38 119.398C234.907 116.346 232.021 114.707 229.163 114.105C226.155 113.469 223.748 114.877 220.885 114.877Z" fill="#263238" stroke="#263238" stroke-linecap="round" stroke-linejoin="round"/>
<path d="M219.397 135.06C219.397 135.06 220.885 131.054 222.682 132.276C224.48 133.498 222.833 139.06 221.791 139.581C220.749 140.102 219.853 138.71 219.853 138.71" fill="white"/>
<path d="M219.397 135.06C219.397 135.06 220.885 131.054 222.682 132.276C224.48 133.498 222.833 139.06 221.791 139.581C220.749 140.102 219.853 138.71 219.853 138.71" stroke="#263238" stroke-linecap="round" stroke-linejoin="round"/>
<path d="M13.8716 252.179H322.707" stroke="#263238" stroke-width="2" stroke-linecap="round" stroke-linejoin="round"/>
</svg>
